<svg width="500" height="500" viewBox="0 0 500 500" fill="none"
    xmlns="http://www.w3.org/2000/svg">
    <g filter="url(#filter0_d_1_26)">
        <mask id="mask0_1_26" style="mask-type:luminance" maskUnits="userSpaceOnUse" x="125" y="116" width="249" height="269">
            <path d="M125.875 116.062H373.875V384.063H125.875V116.062Z" fill="white"/>
        </mask>
        <g mask="url(#mask0_1_26)">
            <path d="M178.156 197.927C178.156 197.927 173.052 181.729 173.156 167.422C176.286 175.552 176.776 175.859 176.776 175.859C176.776 175.859 173.057 164.38 176.089 151.052C184.901 165.068 190.172 164.969 190.172 164.969C190.172 164.969 198.354 149.875 194.714 138.214C204.083 147.328 205.943 150.125 205.943 150.125C205.943 150.125 206.135 141.547 229.823 137.229C253.51 132.917 257.818 116.062 257.818 116.062C257.818 116.062 264.865 130.37 259.677 142.62C270.932 137.724 278.187 135.568 292.656 140.958C307.13 146.349 321.432 128.214 321.432 128.214C321.432 128.214 326.979 146.641 314.859 157.911C314.859 157.911 322.802 159.312 331.12 168.401C339.437 177.49 360.875 174.266 370.068 170.641C365.37 184.755 355.583 194.016 345.208 197.911C345.208 197.911 367.437 203.135 373.167 236.917C378.891 270.698 348.51 293.208 322.083 304.016C330.01 296.516 331.333 294.599 331.333 294.599C331.333 294.599 259.115 304.453 284.651 359.365C267.693 348.333 264.172 333.781 264.172 333.781C264.172 333.781 266.5 349.443 268.089 354.734C253.604 349.219 250.958 346.125 250.958 346.125C250.958 346.125 245.01 369.719 226.734 384.052C227.615 354.505 220.615 346.786 220.615 346.786L214.437 359.797C214.437 359.797 216.823 343.792 192.047 329.521C167.276 315.25 161.776 303.562 161.776 303.562C161.776 303.562 161.333 313.37 162.875 318.724C146.135 300.917 142.411 275.807 157.708 251.047C145.698 258.589 125.88 258.453 125.88 258.453C125.88 258.453 153.25 243.771 159.057 218.766C164.859 193.755 178.156 197.927 178.156 197.927Z" fill="black"/>
        </g>
        <mask id="mask1_1_26" style="mask-type:luminance" maskUnits="userSpaceOnUse" x="152" y="136" width="210" height="227">
            <path d="M361.333 136H152V362.667H361.333V136Z" fill="white"/>
        </mask>
        <g mask="url(#mask1_1_26)">
            <path d="M203.875 180.813C202.563 179.641 201.188 178.391 200.276 177.161C200.104 176.938 199.948 176.714 199.813 176.495C199.755 176.396 199.698 176.297 199.641 176.203C199.495 175.938 199.375 175.661 199.281 175.375C199.234 175.245 199.203 175.109 199.177 174.974C199.125 174.708 199.115 174.448 199.146 174.182C199.391 174.427 199.635 174.661 199.885 174.891C200.047 175.042 200.214 175.188 200.38 175.328C200.714 175.609 201.057 175.87 201.417 176.109C201.599 176.229 201.781 176.344 201.969 176.448C202.156 176.557 202.354 176.656 202.552 176.75C203.078 176.995 203.62 177.182 204.188 177.318C204.302 177.344 204.422 177.375 204.547 177.396C204.797 177.443 205.052 177.484 205.318 177.516C205.583 177.552 205.854 177.573 206.151 177.589C206.583 177.609 207.042 177.609 207.531 177.589C208.641 177.531 209.745 177.401 210.844 177.193C210.615 177.208 210.38 177.219 210.135 177.224C209.74 177.224 209.333 177.224 208.896 177.172L208.63 177.151C205.979 176.88 203.057 175.781 201.604 173.604L201.469 173.396C201.104 172.786 200.865 172.13 200.755 171.432C200.536 170.063 200.776 168.422 201.672 166.469C205.5 158.161 202.229 153.984 202.229 153.984C202.229 153.984 204.036 157.042 199.047 163.974C194.063 170.906 197.885 175.714 197.885 175.714C197.885 175.714 196.167 174.396 194.708 170.604C194.458 181.589 203.87 180.813 203.875 180.813Z" fill="#10B981"/>
            <mask id="mask2_1_26" style="mask-type:luminance" maskUnits="userSpaceOnUse" x="220" y="318" width="19" height="44">
                <path d="M220 318.667H238.667V361.922H220V318.667Z" fill="white"/>
            </mask>
            <g mask="url(#mask2_1_26)">
                <path d="M233.844 330.208C235.969 334.943 236.208 339.87 236.151 342.479C235.99 340.24 234.849 336.188 229.635 331.203C221.589 323.521 222.984 321.521 223.385 318.729C223.385 318.729 219.99 321.151 220.719 325.557C220.797 326.016 220.911 326.464 221.057 326.901C221.182 327.271 221.328 327.625 221.49 327.979C222.219 329.484 223.151 330.844 224.292 332.063C225.193 333.042 226.151 333.958 227.172 334.807C229.271 336.568 230.964 338.651 232.25 341.073C233.37 343.203 234.135 345.453 234.547 347.823C234.583 348.036 234.62 348.25 234.656 348.464C234.703 348.781 234.745 349.094 234.781 349.411C234.807 349.615 234.833 349.818 234.849 350.021C234.885 350.385 234.911 350.74 234.932 351.099C234.974 351.802 234.99 352.49 234.99 353.156C234.979 356.109 234.563 359.01 233.745 361.849C233.745 361.849 244.703 348.766 233.844 330.208Z" fill="#10B981"/>
            </g>
            <path d="M174.885 218.766C176.005 225.042 175.193 228.333 175.193 228.333C175.193 228.333 179.104 223.307 179.953 214.12C180.797 204.937 187.021 198.094 191.453 195.026C188.938 195.984 186.599 197.266 184.438 198.875L184.083 199.146C183.849 199.323 183.609 199.51 183.37 199.703C182.896 200.094 182.417 200.51 181.948 200.943C181.714 201.167 181.479 201.391 181.25 201.625C180.786 202.094 180.333 202.589 179.906 203.115C179.688 203.38 179.474 203.651 179.266 203.917C179.052 204.187 178.849 204.479 178.651 204.771C178.458 205.057 178.26 205.359 178.078 205.661C177.891 205.964 177.708 206.281 177.536 206.599C177.365 206.922 177.198 207.25 177.047 207.583C176.891 207.922 176.74 208.266 176.599 208.615C176.458 208.969 176.328 209.323 176.208 209.693C176.031 210.24 175.875 210.807 175.734 211.396C175.604 211.979 175.495 212.583 175.411 213.203C175.286 212.766 175.182 212.344 175.094 211.932C175 211.526 174.927 211.125 174.865 210.766C174.844 210.641 174.828 210.516 174.807 210.401C174.755 210.047 174.714 209.719 174.688 209.406C174.656 209.089 174.635 208.75 174.62 208.453C174.563 207.51 174.62 206.578 174.802 205.651C174.802 205.651 167.464 212.562 168.479 224.115C168.604 225.505 168.469 226.875 168.078 228.219C167.984 228.542 167.875 228.859 167.76 229.172C167.641 229.484 167.51 229.792 167.365 230.099C167.047 230.766 166.677 231.411 166.266 232.026C165.828 232.677 165.349 233.292 164.828 233.88C164.385 234.396 163.917 234.891 163.427 235.359C163.182 235.594 162.932 235.823 162.677 236.052C158.021 240.208 152.26 242.505 152.26 242.505C152.26 242.505 171.526 241.984 174.885 218.766Z" fill="#10B981"/>
            <path d="M230.286 314.359C230.286 314.359 230.286 314.391 230.286 314.406C230.302 313.057 230.432 311.724 230.677 310.396C231.073 308.266 231.703 306.203 232.557 304.208C232.995 303.172 233.5 302.13 234.063 301.094C234.438 300.401 234.844 299.714 235.276 299.031C236.635 296.891 238.177 294.885 239.896 293.021C240.495 292.375 241.115 291.74 241.766 291.109C242.411 290.479 243.089 289.859 243.792 289.255C244.495 288.646 245.224 288.052 245.979 287.464C246.354 287.177 246.74 286.885 247.13 286.604C248.74 285.438 250.406 284.359 252.13 283.375C253.615 282.526 254.953 281.682 256.177 280.854C257.547 279.922 258.76 279.01 259.844 278.12C260.083 277.922 260.318 277.729 260.542 277.531C260.979 277.161 261.391 276.792 261.776 276.427C262.073 276.161 262.354 275.891 262.62 275.62L262.948 275.297C263.115 275.125 263.276 274.958 263.432 274.792C263.589 274.625 263.792 274.406 263.969 274.219C264.177 273.99 264.37 273.76 264.557 273.542C264.745 273.318 264.984 273.026 265.177 272.781L265.271 272.661C265.38 272.516 265.49 272.391 265.589 272.245L265.693 272.104C265.781 271.974 265.875 271.849 265.958 271.729C266.047 271.604 266.151 271.458 266.229 271.318L266.438 271L266.547 270.828C266.609 270.729 266.667 270.635 266.719 270.557C266.776 270.479 266.792 270.443 266.828 270.38C266.922 270.224 267.01 270.073 267.099 269.932C267.13 269.87 267.167 269.807 267.198 269.75C267.406 269.365 267.568 269.021 267.698 268.729L267.766 268.573C267.901 268.266 268.01 267.953 268.099 267.625C267.766 268.01 267.432 268.385 267.094 268.75C261.901 274.318 255.958 278.911 249.26 282.531C249.26 282.531 252.307 278.661 255.151 275.375C235.854 285.563 229.49 299.026 230.286 314.359Z" fill="#10B981"/>
            <mask id="mask3_1_26" style="mask-type:luminance" maskUnits="userSpaceOnUse" x="269" y="194" width="92" height="137">
                <path d="M269.333 194.667H360.641V330.667H269.333V194.667Z" fill="white"/>
            </mask>
            <g mask="url(#mask3_1_26)">
                <path d="M351.026 211.328C353.344 238.089 344.833 253.266 344.833 253.266C344.833 253.266 351.583 213.724 324.573 195.036C325.089 196.141 325.578 197.24 326.037 198.318C326.25 198.812 326.458 199.307 326.662 199.797C327.042 200.729 327.401 201.651 327.734 202.557C327.922 203.052 328.099 203.547 328.271 204.031C328.344 204.245 328.422 204.453 328.495 204.667C328.854 205.672 329.182 206.661 329.484 207.625C329.531 207.76 329.573 207.896 329.615 208.031C329.859 208.812 330.089 209.583 330.302 210.333C330.458 210.875 330.609 211.411 330.755 211.948C332.099 216.875 333 221.885 333.458 226.974C333.458 227 333.458 227.021 333.458 227.052C333.609 228.63 333.672 230.214 333.651 231.797C333.604 231.307 333.531 230.823 333.432 230.344C333.432 230.312 333.432 230.276 333.417 230.245C333.287 229.583 333.089 228.734 332.802 227.75L332.729 227.51C332.625 227.182 332.516 226.839 332.396 226.49C332.37 226.411 332.344 226.339 332.318 226.26C332.193 225.917 332.047 225.557 331.917 225.182L331.76 224.802C331.547 224.281 331.313 223.74 331.047 223.187C331 223.078 330.943 222.969 330.891 222.854C330.714 222.5 330.521 222.125 330.318 221.745C330.021 221.187 329.698 220.62 329.344 220.047C328.964 219.427 328.552 218.802 328.104 218.161C327.974 217.979 327.833 217.786 327.698 217.604C326.891 216.521 326.026 215.495 325.099 214.516C324.828 214.245 324.563 213.964 324.292 213.687C320.927 210.37 316.359 207.234 310.167 204.896C310.167 204.896 335.13 224.339 322.505 253.266C323.563 252.328 324.526 251.453 325.391 250.641L326.182 249.896L326.609 249.484C326.995 249.115 327.359 248.755 327.703 248.406L328.052 248.062C333.771 242.307 333.974 240.443 333.974 240.437C333.984 241.661 333.922 242.885 333.787 244.099C333.787 244.13 333.787 244.156 333.787 244.182C333.537 246.5 333.109 248.786 332.521 251.042C332.453 251.312 332.38 251.578 332.302 251.849C332.198 252.229 332.083 252.62 331.964 253.005C331.787 253.583 331.589 254.167 331.38 254.755C330.927 256.047 330.396 257.37 329.771 258.708C329.552 259.187 329.318 259.661 329.073 260.141C328.948 260.38 328.823 260.62 328.693 260.854C327.646 262.802 326.443 264.651 325.083 266.391L324.859 266.682C322.276 269.922 319.24 272.656 315.75 274.885C314.432 275.734 313.016 276.604 311.531 277.51L311.037 277.818L309.51 278.74L308.995 279.052L305.266 281.302L304.729 281.63C303.453 282.406 302.156 283.198 300.849 284.01L299.724 284.708C298.912 285.219 298.089 285.74 297.271 286.266L296.688 286.641L296 287.083L295.375 287.464L294.62 287.964C294.349 288.135 294.083 288.312 293.833 288.49L292.958 289.094L292.401 289.474L291.297 290.24C290.745 290.625 290.198 291.016 289.651 291.411L288.578 292.198C288.307 292.391 288.068 292.578 287.813 292.771C287.432 293.057 287.057 293.344 286.682 293.63C286.255 293.964 285.833 294.297 285.417 294.625C284.906 295.036 284.396 295.453 283.896 295.87C283.563 296.135 283.234 296.427 282.906 296.708C282.578 296.995 282.255 297.276 281.938 297.562C280.073 299.208 278.323 300.974 276.682 302.849C276.557 303 276.417 303.151 276.297 303.302C276.026 303.609 275.792 303.911 275.547 304.219L275.182 304.682C274.708 305.297 274.26 305.922 273.839 306.552C273.625 306.87 273.422 307.187 273.224 307.505C273.021 307.818 272.828 308.141 272.646 308.458C272.552 308.62 272.464 308.781 272.375 308.943C268.906 315.234 268.224 322.094 272.339 329.531C272.339 329.531 273.229 295.422 320.198 287.776C367.172 280.13 366.021 227.5 351.026 211.328Z" fill="#10B981"/>
            </g>
            <path d="M241.62 318.896C242.005 316.953 242.76 315.172 243.885 313.547C243.984 313.396 244.089 313.24 244.198 313.083C247.266 308.781 253.156 304.172 263.208 299.464C272.542 295.094 280.328 290.583 286.792 286.01C287.286 285.661 287.781 285.307 288.26 284.953C289.708 283.891 291.083 282.823 292.391 281.75C295.26 279.411 297.964 276.891 300.495 274.182C301.172 273.464 301.818 272.74 302.443 272C303.375 270.906 304.25 269.813 305.068 268.714C305.453 268.198 305.823 267.677 306.182 267.161C306.844 266.214 307.474 265.26 308.063 264.307C308.51 263.573 308.938 262.833 309.344 262.099C309.953 260.995 310.51 259.885 311.021 258.776C311.24 258.297 311.453 257.818 311.651 257.339C311.875 256.818 312.089 256.292 312.292 255.76C312.37 255.563 312.443 255.359 312.521 255.156C313.552 252.365 314.333 249.505 314.859 246.578C314.995 245.839 315.109 245.099 315.214 244.365C315.651 241.078 315.818 237.781 315.703 234.469V234.406C315.656 232.958 315.563 231.516 315.432 230.078C305.37 246.922 291.234 251.063 291.234 251.063C291.234 251.063 305.125 239.349 304.146 210.839C304.078 208.938 303.943 206.964 303.74 204.922C303.469 205.979 303.182 207.01 302.885 208.016C298.438 223.078 291.505 231.807 291.505 231.807C291.505 231.807 291.505 225.328 287.01 219.76C286.87 219.583 286.729 219.411 286.578 219.24C284.078 216.365 280.318 213.797 274.646 212.609C274.646 212.609 303.198 236.026 259.417 267.344C276.552 263.531 282.531 256.724 282.531 256.724C282.531 256.724 275.677 273.938 250.417 290.38C225.156 306.818 225.974 332.37 258.328 340.297C255.797 339.036 253.396 337.563 251.13 335.87L250.823 335.635C250.109 335.099 249.38 334.505 248.677 333.875L248.37 333.609C248.167 333.427 247.969 333.24 247.766 333.052C247.568 332.865 247.37 332.672 247.172 332.474C246.979 332.281 246.755 332.063 246.568 331.87L246.286 331.568C246.099 331.365 245.917 331.156 245.729 330.948C245.094 330.214 244.505 329.443 243.969 328.635C243.661 328.177 243.38 327.708 243.12 327.229C242.99 326.99 242.87 326.745 242.75 326.5L242.578 326.13C242.469 325.885 242.37 325.635 242.271 325.38C242.224 325.255 242.177 325.125 242.13 325C242 324.62 241.885 324.229 241.786 323.839C241.755 323.708 241.724 323.568 241.698 323.443C241.547 322.776 241.458 322.104 241.427 321.422C241.427 321.286 241.427 321.156 241.427 321.01C241.427 320.443 241.464 319.88 241.547 319.323C241.573 319.182 241.594 319.036 241.62 318.896Z" fill="#10B981"/>
            <path d="M202.938 316.432L203.38 316.656L203.62 316.781L204.026 316.995C204.104 317.036 204.182 317.078 204.255 317.115L204.667 317.339L204.865 317.448L205.422 317.76H205.443L206 318.083L206.172 318.182L206.537 318.406L206.734 318.526C206.844 318.594 206.953 318.661 207.063 318.729L207.255 318.849L207.578 319.063L207.745 319.167L208.188 319.464L208.219 319.484L208.667 319.797L208.807 319.901L209.099 320.115L209.26 320.229L209.526 320.432L209.682 320.547L209.948 320.755L210.083 320.859C210.198 320.953 210.313 321.047 210.422 321.146L210.458 321.172C210.578 321.276 210.698 321.375 210.813 321.479L210.927 321.583L211.162 321.792L211.287 321.906L211.495 322.104L211.62 322.224L211.828 322.432L211.927 322.536L212.198 322.802L212.224 322.828C212.318 322.932 212.412 323.036 212.505 323.141L212.589 323.234L212.87 323.563L213.042 323.771L213.13 323.88L213.302 324.099L213.375 324.193C213.448 324.292 213.526 324.391 213.594 324.495C213.672 324.599 213.75 324.703 213.818 324.813L213.875 324.891L214.031 325.13L214.099 325.234L214.24 325.453C214.26 325.49 214.281 325.521 214.302 325.557C214.349 325.635 214.396 325.714 214.443 325.792L214.49 325.88C214.62 326.094 214.74 326.313 214.854 326.536C214.854 326.552 214.875 326.573 214.885 326.594C214.932 326.682 214.979 326.771 215.021 326.865C215.037 326.891 215.052 326.922 215.063 326.948L215.188 327.203C215.203 327.229 215.214 327.255 215.224 327.286C215.271 327.38 215.313 327.469 215.354 327.552L215.38 327.609C215.484 327.839 215.583 328.073 215.677 328.307C215.724 328.422 215.771 328.536 215.813 328.646C215.823 328.661 215.828 328.677 215.833 328.693L215.953 329.01C215.953 329.026 215.953 329.036 215.953 329.047C217.146 332.24 217.896 335.839 220.026 340.37C216.141 330.635 218.953 315.781 205.625 310.156C192.297 304.531 190.583 295.094 190.583 295.094C190.583 295.094 190.38 301.13 194.844 305.969C177.135 296.594 185.177 274.031 185.177 274.031C175.641 291.729 181.323 298.167 181.323 298.167C181.323 298.167 177.021 294.641 172.708 285.625C172.708 285.698 172.708 285.76 172.708 285.833C172.708 285.818 172.708 285.802 172.708 285.786C172.708 285.885 172.708 285.974 172.729 286.073C172.745 286.339 172.76 286.609 172.781 286.88L172.807 287.198C172.828 287.469 172.849 287.729 172.87 287.99C172.87 288.094 172.891 288.193 172.901 288.297C172.922 288.568 172.948 288.813 172.974 289.063L173.005 289.349C173.036 289.599 173.063 289.854 173.094 290.099C173.104 290.193 173.12 290.281 173.13 290.37C173.161 290.615 173.193 290.859 173.229 291.094L173.266 291.365C173.302 291.599 173.339 291.839 173.38 292.068C173.391 292.151 173.406 292.229 173.422 292.313C173.458 292.542 173.5 292.771 173.542 292.995C173.542 293.073 173.573 293.146 173.583 293.219C173.63 293.443 173.672 293.672 173.719 293.891L173.766 294.104C173.818 294.323 173.859 294.536 173.911 294.75C173.927 294.818 173.948 294.885 173.964 294.953C174.016 295.167 174.068 295.375 174.12 295.578C174.135 295.641 174.156 295.703 174.172 295.766C174.229 295.969 174.281 296.172 174.339 296.37L174.396 296.552C174.453 296.75 174.516 296.948 174.578 297.141L174.63 297.307C174.693 297.495 174.76 297.688 174.823 297.875L174.88 298.031C174.948 298.214 175.016 298.401 175.089 298.568L175.141 298.708C175.214 298.891 175.286 299.068 175.359 299.25C175.38 299.292 175.401 299.333 175.422 299.38C175.495 299.552 175.573 299.729 175.651 299.896L175.708 300.021C175.792 300.188 175.87 300.359 175.953 300.521L176.01 300.635C176.094 300.802 176.177 300.958 176.281 301.12C176.302 301.156 176.323 301.188 176.339 301.229C176.427 301.385 176.516 301.542 176.609 301.693L176.667 301.786C176.76 301.943 176.854 302.094 176.948 302.245L177.005 302.328C177.099 302.479 177.198 302.625 177.302 302.771C177.318 302.797 177.339 302.823 177.354 302.849C177.458 302.99 177.563 303.135 177.667 303.276C177.682 303.302 177.703 303.323 177.724 303.349C177.828 303.484 177.932 303.615 178.042 303.76L178.099 303.828C178.208 303.958 178.323 304.094 178.432 304.224L178.479 304.276C178.599 304.411 178.714 304.547 178.839 304.667L178.88 304.714C179 304.844 179.125 304.984 179.245 305.094L179.286 305.135L179.672 305.5L179.708 305.531C179.839 305.656 179.974 305.776 180.109 305.891L180.141 305.917C180.276 306.036 180.406 306.151 180.557 306.266L180.583 306.292L181.016 306.625H181.031C181.177 306.74 181.333 306.849 181.484 306.958L181.958 307.286C185.969 309.974 191.073 311.375 196.875 313.682L196.974 313.719L197.526 313.943L197.677 314.005C197.839 314.073 198.005 314.141 198.172 314.214L198.391 314.302L198.849 314.495L199.115 314.609L199.589 314.813L199.839 314.922L200.292 315.13L200.557 315.255L201 315.458L201.297 315.599L201.714 315.797L202.036 315.953L202.708 316.286L202.938 316.432Z" fill="#10B981"/>
            <path d="M228.203 176.729C232.104 160.323 245.49 160.807 245.49 160.807C245.49 160.807 244.578 161.458 243.005 167.422C251.245 157.141 264.193 153.339 281.719 157.141C263.922 157.021 252.552 165.651 252.552 165.651C291.13 160.536 303.688 174.687 303.688 174.687C275.047 161.589 250.401 175.859 250.401 175.859C276.307 170.375 291.953 179.193 298.083 183.865C296.323 182.203 293.609 179.516 289.516 175.214C338.62 202.005 351.031 182.156 351.031 182.156C351.031 182.156 336.526 189.094 320.167 173.51C307.813 161.74 293.943 159.594 287.885 159.255C286.896 159.271 285.859 159.255 284.776 159.214C285.813 159.172 286.849 159.182 287.885 159.255C307.203 158.906 309.662 147.604 309.662 147.604C309.432 147.797 309.203 147.984 308.964 148.161L308.734 148.339C300.438 154.484 287.229 152.234 270.609 150.396C269.083 150.224 267.552 150.13 266.01 150.125H266.047H265.229C265 150.125 264.781 150.125 264.563 150.146L264.104 150.161L263.432 150.203L263.016 150.229C262.771 150.25 262.526 150.276 262.281 150.297L261.974 150.328C261.63 150.365 261.297 150.406 260.969 150.453L260.724 150.49C260.474 150.526 260.229 150.562 259.984 150.609C259.865 150.625 259.75 150.651 259.63 150.672L259.047 150.781L258.672 150.865C258.495 150.901 258.318 150.937 258.135 150.979L257.76 151.068L257.26 151.198L256.901 151.297L256.422 151.437L256.083 151.536L255.599 151.693L255.297 151.792L254.781 151.979L254.547 152.068C254.307 152.156 254.068 152.25 253.839 152.333L253.708 152.391C253.521 152.469 253.339 152.542 253.172 152.625C253.089 152.661 253.01 152.698 252.927 152.734L252.521 152.922L252.266 153.047L251.906 153.229L251.656 153.359L251.318 153.536L251.083 153.667C250.974 153.729 250.87 153.792 250.766 153.849L250.547 153.979L250.234 154.167L250.042 154.286L249.719 154.495L249.573 154.594C249.422 154.693 249.276 154.792 249.135 154.891L249.083 154.927C248.958 155.016 248.844 155.099 248.729 155.182L248.589 155.286L248.349 155.469L248.208 155.583L248.005 155.745L247.87 155.854L247.688 156.01L247.563 156.141L247.401 156.281L247.292 156.38L247.141 156.521L247.052 156.604L246.906 156.745L246.839 156.807L246.656 156.99C246.495 157.167 246.333 157.349 246.162 157.526C246.162 157.526 246.323 157.323 246.656 156.99C249.714 153.547 250.714 150.76 250.714 150.76C250.714 150.76 246.016 155.833 236.037 158.99C226.052 162.151 228.203 176.729 228.203 176.729Z" fill="#10B981"/>
            <path d="M224.193 157.115C224.927 156.375 225.708 155.693 226.536 155.057C227.427 154.375 228.359 153.745 229.328 153.177C229.578 153.026 229.833 152.88 230.099 152.734C230.62 152.448 231.172 152.167 231.734 151.896C233.245 151.167 234.792 150.542 236.38 150.01C237.641 149.594 238.875 149.104 240.083 148.557C240.641 148.297 241.182 148.031 241.693 147.76C241.948 147.625 242.193 147.495 242.438 147.354C242.917 147.083 243.375 146.797 243.802 146.51C244.016 146.365 244.229 146.219 244.432 146.073C244.839 145.786 245.219 145.49 245.578 145.198C246.411 144.516 247.167 143.76 247.849 142.927C248.208 142.49 248.536 142.031 248.839 141.552C248.932 141.401 249.021 141.25 249.104 141.099C249.427 140.526 249.698 139.927 249.911 139.302C250.24 138.365 250.401 137.401 250.401 136.406C243.26 145.229 237.24 145.964 226.448 146.698C215.661 147.427 206.156 155.302 205.5 162.583L205.026 160.13C205.026 160.13 199.094 173.578 213.109 175.797H213.151L213.417 175.839C213.417 175.839 211.203 175.099 209.859 173.167C209.557 172.74 209.318 172.281 209.151 171.786C209.057 171.521 208.984 171.25 208.932 170.979C208.88 170.677 208.849 170.375 208.844 170.073C208.833 169.146 208.984 168.25 209.292 167.38C209.958 165.401 211.099 163.99 212.396 162.776L212.813 162.401C213.078 162.167 213.349 161.943 213.615 161.719C213.885 161.495 214.167 161.271 214.443 161.052C216.797 159.193 219.151 157.417 219.948 153.964C219.984 154.922 219.859 155.859 219.583 156.781C219.432 157.318 219.25 157.859 219.063 158.396L218.781 159.203C218.635 159.599 218.495 160.01 218.365 160.396C218.286 160.635 218.214 160.865 218.146 161.099C218.094 161.297 218.042 161.484 217.995 161.677C217.88 162.156 217.802 162.641 217.771 163.13C217.766 163.146 217.766 163.161 217.771 163.177C217.677 164.458 218 165.625 218.745 166.672C218.917 166.026 219.115 165.385 219.344 164.75C219.417 164.536 219.5 164.328 219.583 164.115C219.745 163.698 219.927 163.281 220.12 162.875C220.927 161.172 221.948 159.609 223.182 158.187C223.505 157.833 223.844 157.469 224.193 157.115Z" fill="#10B981"/>
            <path d="M160.094 292.427L160.068 292.339L160.042 292.255C160.042 292.219 160.026 292.193 160.016 292.161L159.995 292.073C159.995 292.036 159.974 292 159.964 291.964C159.958 291.932 159.964 291.906 159.943 291.875C159.922 291.844 159.922 291.781 159.911 291.729C159.901 291.682 159.911 291.682 159.891 291.656L159.849 291.458C159.849 291.432 159.849 291.401 159.833 291.375C159.813 291.349 159.813 291.276 159.807 291.229C159.797 291.182 159.792 291.167 159.786 291.13C159.781 291.094 159.766 291.031 159.76 290.979L159.745 290.88C159.745 290.828 159.724 290.776 159.719 290.719C159.708 290.661 159.719 290.656 159.719 290.625C159.719 290.536 159.688 290.453 159.677 290.354C159.677 290.354 159.677 290.333 159.677 290.323C159.677 290.245 159.656 290.161 159.651 290.078C159.651 290.047 159.651 290.01 159.651 289.979C159.651 289.948 159.651 289.849 159.63 289.786V289.677L159.615 289.479V289.37C159.615 289.292 159.615 289.219 159.615 289.141C159.615 289.109 159.615 289.083 159.615 289.052C159.615 288.943 159.615 288.839 159.615 288.729C159.615 288.708 159.615 288.688 159.615 288.672C159.615 288.578 159.615 288.484 159.615 288.401V288.286C159.615 288.208 159.615 288.13 159.615 288.052C159.615 287.969 159.615 287.969 159.615 287.927V287.688C159.615 287.646 159.615 287.604 159.615 287.563C159.615 287.469 159.615 287.37 159.615 287.276C159.615 287.25 159.615 287.219 159.615 287.193C159.615 287.068 159.635 286.938 159.646 286.813V286.729C159.646 286.625 159.661 286.526 159.672 286.422C159.672 286.38 159.672 286.333 159.672 286.292C159.672 286.203 159.693 286.109 159.708 286.021C159.708 285.974 159.708 285.922 159.729 285.88C159.74 285.781 159.75 285.693 159.766 285.609C159.766 285.563 159.766 285.521 159.786 285.474C159.807 285.354 159.828 285.234 159.849 285.115V285.057C159.875 284.911 159.901 284.766 159.932 284.62L159.953 284.51C159.979 284.401 160 284.292 160.026 284.182C160.026 284.13 160.047 284.078 160.063 284.026L160.13 283.724L160.172 283.568C160.198 283.458 160.229 283.354 160.255 283.245C160.255 283.198 160.281 283.151 160.292 283.104C160.38 282.792 160.474 282.474 160.578 282.151L160.625 282.016C160.667 281.896 160.703 281.781 160.745 281.661L160.802 281.495C160.844 281.385 160.88 281.271 160.927 281.161L160.99 280.984C161.036 280.865 161.083 280.745 161.13 280.62C161.151 280.573 161.167 280.526 161.188 280.479C161.255 280.307 161.328 280.13 161.401 279.958C161.401 279.943 161.411 279.932 161.417 279.917C161.484 279.76 161.557 279.599 161.63 279.438C161.656 279.38 161.682 279.328 161.708 279.271C161.766 279.151 161.818 279.026 161.88 278.906C161.906 278.844 161.938 278.776 161.969 278.714L162.146 278.354L162.24 278.167C162.313 278.031 162.385 277.896 162.458 277.755L162.526 277.615L162.833 277.057L162.896 276.953C162.979 276.802 163.068 276.646 163.167 276.495C163.203 276.432 163.24 276.365 163.281 276.302L163.51 275.922C163.552 275.849 163.599 275.781 163.641 275.708L163.88 275.323L164.01 275.125C164.109 274.969 164.214 274.818 164.313 274.667L164.401 274.536C164.536 274.339 164.672 274.141 164.807 273.943L164.917 273.786C165.026 273.641 165.13 273.49 165.24 273.339C165.292 273.266 165.349 273.198 165.401 273.125L165.698 272.724L165.875 272.5L166.172 272.078C166.229 272.005 166.281 271.938 166.339 271.865C166.479 271.688 166.62 271.51 166.771 271.328L166.844 271.234C167.016 271.026 167.188 270.818 167.38 270.609L167.542 270.417L167.932 269.969C168.005 269.891 168.073 269.813 168.141 269.734C168.266 269.594 168.391 269.458 168.521 269.318L168.74 269.078C168.875 268.927 169.005 268.781 169.151 268.635L169.349 268.422C169.557 268.208 169.76 267.995 169.979 267.776C173.521 264.188 176.547 260.198 179.047 255.813C179.172 255.589 179.297 255.365 179.417 255.141C179.604 254.807 179.776 254.484 179.943 254.161C180.271 253.531 180.578 252.911 180.865 252.307C181.401 251.177 181.865 250.078 182.276 249.026C182.464 248.552 182.641 248.083 182.802 247.625C182.87 247.432 182.938 247.245 183 247.057C183.146 246.635 183.281 246.229 183.401 245.828C183.557 245.333 183.703 244.854 183.833 244.385C183.938 244.01 184.031 243.646 184.125 243.286C184.182 243.047 184.24 242.813 184.297 242.589C184.349 242.359 184.385 242.214 184.422 242.031C184.615 241.161 184.76 240.375 184.87 239.693C184.906 239.469 184.938 239.25 184.969 239.042C184.984 238.943 185 238.844 185.01 238.745C185.036 238.552 185.057 238.37 185.078 238.208C185.193 237.198 185.203 236.635 185.203 236.635C185.203 236.635 185 237.292 184.604 238.354C184.557 238.49 184.505 238.625 184.448 238.771C184.234 239.354 183.969 240.031 183.646 240.766C183.531 241.036 183.406 241.328 183.276 241.62C183.193 241.818 183.104 242.016 183.005 242.214C182.823 242.62 182.63 243.021 182.427 243.453C182.276 243.766 182.115 244.089 181.948 244.411C181.839 244.625 181.729 244.839 181.609 245.057C181.5 245.276 181.38 245.49 181.26 245.708L180.891 246.359L180.505 247.005C180.443 247.115 180.375 247.224 180.307 247.328C180.177 247.542 180.042 247.755 179.901 247.969C179.698 248.286 179.484 248.599 179.266 248.906C179.12 249.115 178.974 249.318 178.823 249.521C178.75 249.62 178.672 249.719 178.599 249.818C177.932 250.693 177.203 251.505 176.401 252.255C176.188 251.13 176.036 250.036 175.943 248.974C175.901 248.568 175.875 248.167 175.854 247.766C175.833 247.411 175.823 247.052 175.813 246.693C175.729 242.927 176.318 239.266 177.583 235.719C178.333 233.63 179.276 231.635 180.411 229.729C180.589 229.432 180.76 229.141 180.932 228.865C181.104 228.589 181.224 228.396 181.365 228.172C181.677 227.688 181.974 227.245 182.25 226.828C182.25 226.828 162.802 234.536 169.714 252.135C168.823 247.589 171.193 241.99 171.193 241.99C171.193 241.99 177.115 249.37 164.583 264.495C152.047 279.62 160.531 293.568 160.531 293.568C160.391 293.271 160.271 292.964 160.177 292.651C160.172 292.635 160.167 292.62 160.161 292.604L160.13 292.505L160.094 292.427Z" fill="#10B981"/>
        </g>
        <path d="M182.234 226.839C182.234 226.839 162.792 234.547 169.703 252.146C168.812 247.599 171.182 242 171.182 242C171.182 242 177.104 249.38 164.568 264.505C152.031 279.63 160.531 293.568 160.531 293.568C160.531 293.568 155.057 282.974 169.99 267.766C184.917 252.563 185.198 236.625 185.198 236.625C185.198 236.625 181.943 247.115 176.411 252.245C174.042 239.797 179.276 231.188 182.234 226.839Z" fill="#6D28D9"/>
        <path d="M263.208 299.464C309.161 277.943 317.594 253.266 315.417 230.062C305.354 246.906 291.214 251.042 291.214 251.042C291.214 251.042 307.021 237.719 303.724 204.896C299.375 221.844 291.49 231.797 291.49 231.797C291.49 231.797 291.49 216.135 274.63 212.594C274.63 212.594 291.234 219.719 287.057 243.578C294.182 232.443 295.005 230.354 295.094 230.094C294.823 230.953 288.63 251.766 282.724 262.281C300.359 257.057 308.563 248.844 308.563 248.844C308.563 248.844 306.547 266.047 281.641 279.526C256.729 293.005 240.214 302.896 237.542 317.484C234.875 332.073 258.307 340.286 258.307 340.286C258.307 340.286 217.255 320.979 263.208 299.464Z" fill="#6D28D9"/>
        <path d="M252.13 283.359C266.302 275.224 268.089 267.594 268.089 267.594C267.76 267.979 267.422 268.354 267.083 268.724C258.964 279.953 248.281 283.203 239.073 291C229.792 298.87 230.25 313.443 230.286 314.365C230.286 314.365 230.286 314.391 230.286 314.406C230.406 303.938 237.953 291.49 252.13 283.359Z" fill="#6D28D9"/>
        <path d="M202.047 315.984C215.328 322.479 215.328 327.37 218.016 335.292C217.26 332.448 216.62 329.063 215.583 325.677C213.786 319.818 210.745 316.302 200.599 312.391C190.453 308.484 184.51 299.516 184.51 299.516C184.51 299.516 184.589 300.688 186.307 304.125C174 298.292 172.823 287.24 172.719 285.786C174.13 310.703 186.167 308.214 202.047 315.984Z" fill="#6D28D9"/>
        <path d="M236.964 346.234L235.823 350.979C235.38 341.797 234.182 340.026 226.656 331.536C219.13 323.052 223.391 318.729 223.391 318.729C223.391 318.729 215.12 324.615 227.177 334.797C239.234 344.974 233.745 361.839 233.745 361.839C236.599 356.417 236.964 346.234 236.964 346.234Z" fill="#6D28D9"/>
        <path d="M298.083 183.865C296.323 182.203 293.609 179.516 289.516 175.214C338.62 202.005 351.031 182.156 351.031 182.156C351.031 182.156 336.526 189.094 320.167 173.51C307.812 161.74 293.943 159.594 287.885 159.255C286.896 159.271 285.859 159.255 284.776 159.214C285.812 159.172 286.849 159.182 287.885 159.255C307.203 158.906 309.661 147.604 309.661 147.604C309.286 147.922 308.906 148.219 308.51 148.505C295.552 158.37 284.266 156.964 274.932 161.146C288.443 161.344 299.599 164.479 310.953 173.396C322.302 182.312 331.901 186.24 331.901 186.24C331.901 186.24 323.094 186.141 306.552 178.792C290.016 171.443 277.583 171.339 277.583 171.339C277.583 171.339 279.052 171.927 282.87 173.984C270.536 168.99 250.396 175.87 250.396 175.87C276.307 170.375 291.953 179.193 298.083 183.865Z" fill="#6D28D9"/>
        <path d="M237.354 160.656C245.781 156.458 247.089 154.771 247.266 154.469C247.042 154.891 245.286 158.073 243.276 159.177C249.724 157.484 254.26 151.5 266.036 150.115C254.38 150.078 248.333 155.255 246.651 156.969C246.495 157.146 246.328 157.328 246.156 157.505C246.156 157.505 246.318 157.302 246.651 156.969C249.714 153.547 250.714 150.76 250.714 150.76C250.714 150.76 246.016 155.833 236.036 158.99C226.052 162.151 228.203 176.734 228.203 176.734C228.203 176.734 228.016 165.312 237.354 160.656Z" fill="#6D28D9"/>
        <path d="M209.292 167.406C211.443 161.047 218.453 160.49 219.958 153.984C220.229 158.292 215.875 162.557 218.75 166.687C220.557 159.755 225.589 153.641 236.385 150.026C247.177 146.406 250.443 140.505 250.401 136.417C249.161 140.411 246.708 144.901 235.417 148.406C224.12 151.906 221.24 156.141 221.24 156.141C221.24 156.141 221.865 154.964 222.583 149.484C210.031 161.964 207.161 159.807 206.536 167.406C205.984 174.089 211.719 175.557 213.109 175.812C213.214 175.833 213.313 175.849 213.411 175.865C213.422 175.859 207.141 173.76 209.292 167.406Z" fill="#6D28D9"/>
        <path d="M199.146 174.182C201.776 176.802 204.219 178.401 210.844 177.193C205.984 177.536 197.854 174.776 201.682 166.474C205.51 158.172 202.24 153.99 202.24 153.99C202.24 153.99 204.891 157.484 201.203 163.917C197.516 170.344 200.937 174.333 200.937 174.333C200.937 174.333 198.073 171.5 198.073 170.214C197.875 174.562 197.984 178.427 203.87 180.818C201.469 178.661 198.891 176.25 199.146 174.182Z" fill="#6D28D9"/>
        <path d="M175.396 213.203C174.073 208.51 174.786 205.651 174.786 205.651C174.786 205.651 167.448 212.563 168.464 224.109C169.484 235.656 152.26 242.49 152.26 242.49C173.401 238.885 173.479 211.245 173.479 211.245C173.479 211.245 173.479 213.38 177.078 217.661C178.62 200.552 191.458 195.026 191.458 195.026C191.458 195.026 177.13 199.932 175.396 213.203Z" fill="#6D28D9"/>
        <path d="M320.167 287.776C273.188 295.422 272.307 329.531 272.307 329.531C272.219 328.896 267.797 294.401 325.828 279.542L318.563 279.766C318.563 279.766 359.208 254.75 324.573 195.031C351.589 213.729 344.833 253.266 344.833 253.266C344.833 253.266 353.349 238.083 351.031 211.323C366.021 227.5 367.146 280.146 320.167 287.776Z" fill="#6D28D9"/>
        <path d="M272.766 205.568C269.505 205.568 266.125 205.297 260.641 201.922L255.87 198.995L261.458 199.198C261.458 199.198 261.651 199.198 261.995 199.198C264.521 199.198 275.984 198.844 282.833 192.714C280 193.37 278.802 193.536 278.729 193.547L273.115 194.318L277.646 190.917C277.719 190.87 283.193 186.724 286.781 181.745C271.589 190.229 258.531 190.5 256.964 190.5H256.875L256.385 187.651C256.563 187.583 273.885 181.156 281.406 176.708C290.464 171.37 295.76 165.365 295.807 165.302L298.922 161.745L298.38 166.443C298.297 167.182 296.557 181.74 292.005 190.38C294.422 189.266 295.26 188.677 295.271 188.667L299.531 185.458L297.49 190.417C297.427 190.573 295.896 194.24 292.198 197.948C288.781 201.359 282.797 205.458 273.62 205.578L272.766 205.568Z" fill="black"/>
        <path d="M217.984 185.911L216.036 183.141V186.76C216.036 186.76 213.104 177.615 209.62 181.021C206.135 184.422 199.87 199.125 192.87 204.911C185.875 210.693 187.339 213.193 187.682 219.661C188.026 226.13 187.927 230.344 189.984 238.724C192.036 247.104 190.667 251.219 190.667 251.219C190.667 251.219 190.229 244.948 188.125 241.224C185.479 249.359 179.167 267.443 190.865 272.391C193.552 272.927 201.583 270.87 201.922 264.937C202.266 259.01 202.703 258.422 199.479 256.12C196.26 253.818 195.031 252.005 193.656 248.818C197.12 249.729 200.51 253.036 203.932 253.24C209.901 253.594 215.573 250.255 219.057 249.505C219.057 249.505 216.172 255.583 210.542 257.49C204.917 259.401 205.01 259.057 205.01 262.391C205.01 265.724 204.083 268.422 207.609 270.328C211.13 272.24 219.302 278.516 228.307 277.057C237.312 275.594 244.995 266.224 242.109 257.99C239.219 249.76 231.49 244.568 231.49 244.568C231.49 244.568 242.297 241.807 251.594 255.667C250.714 246.208 245.818 241.458 245.818 241.458C245.818 241.458 257.255 247.078 258.953 243.417C260.646 239.75 269.042 230.719 255.917 205.234C262.432 207.74 265.292 212.927 265.292 212.927C265.292 212.927 260.917 203.089 252.255 197.724C252.255 197.724 256.99 197.995 259.49 198.891C255.115 188.964 250.115 179.307 241.63 179.396C233.151 179.484 217.984 185.911 217.984 185.911Z" fill="#FBBF24"/>
        <path d="M185.443 196.891C185.443 196.891 181.026 193.49 179.953 183.786C182.885 187.318 184.042 187.318 184.042 187.318C184.042 187.318 180.052 180.943 181.516 167.411C189.151 178.193 202.953 183.682 202.953 183.682C202.953 183.682 198.943 189.276 197.87 190.156C191.312 184.375 187.891 182.12 185.344 177.224C186.714 185.453 188.568 189.964 188.568 189.964L185.24 188.885C185.24 188.885 185.156 194.604 185.443 196.891Z" fill="#FBBF24"/>
        <path d="M203.401 274.88C203.401 274.88 195.896 279.297 192.74 283.182C189.578 287.068 198.135 292.938 201.557 300.38C198.604 290.37 200.635 285.625 200.635 285.625C200.635 285.625 204.453 298.339 214.521 305.854C209.255 291.62 210.443 286.74 210.443 286.74C210.443 286.74 215.51 298.578 225.182 301.979C230.906 291.818 235.714 289.052 236.828 284.495C219.26 289.245 203.401 274.88 203.401 274.88Z" fill="#FBBF24"/>
        <path d="M296.911 166.271C296.911 166.271 291.542 172.432 282.141 177.974C274.406 182.547 256.891 189.026 256.891 189.026C256.891 189.026 273.083 189.26 290.677 177.661C288.125 184.922 278.542 192.099 278.542 192.099C278.542 192.099 280.849 191.781 286.885 190.214C279.875 201.339 261.406 200.677 261.406 200.677C266.776 203.974 269.818 204.146 273.599 204.099C290.385 203.875 296.13 189.859 296.13 189.859C296.13 189.859 294.349 191.203 287.802 193.74C294.438 187.583 296.911 166.271 296.911 166.271Z" fill="#FBBF24"/>
        <path d="M242.104 257.979C239.214 249.75 231.479 244.557 231.479 244.557C231.479 244.557 242.297 241.807 251.594 255.667C250.714 246.208 245.818 241.458 245.818 241.458C245.818 241.458 257.255 247.078 258.953 243.417C260.646 239.75 269.042 230.719 255.917 205.234C262.432 207.74 265.292 212.927 265.292 212.927C265.292 212.927 260.917 203.089 252.255 197.724C252.255 197.724 256.99 197.995 259.49 198.891C255.115 188.964 250.115 179.307 241.63 179.396C241.349 179.396 241.057 179.406 240.76 179.427C256.734 188.63 250.859 200.141 250.859 200.141L246.745 195.031C243.813 210.63 226.047 207.646 226.047 207.646C226.047 207.646 224.667 209.432 221.547 219.75C216.75 232.437 214.99 247.839 214.99 247.839C214.99 247.839 219.443 240.88 222.083 235.88C228.833 222.943 253.354 228.677 249.682 235.437C246.01 242.203 238.089 236.469 238.089 236.469L240.75 240.698C233.302 236.682 222.083 242 222.083 242C222.083 242 227.661 244.849 231.776 249.995C240.141 264.99 232.214 270.641 232.214 270.641C232.214 270.641 233.531 268.375 231.776 262.958C227.443 270.682 217.115 272.516 212 272.948C216.172 275.344 222.036 278.057 228.297 277.047C237.307 275.573 244.99 266.214 242.104 257.979Z" fill="#F59E0B"/>
        <path d="M190.969 206.599C188.531 208.953 187.646 210.792 187.401 212.786C191.109 219.672 197.49 219.146 197.49 219.146C197.49 219.146 195.927 222.411 196.807 229.365L194.917 226.839C194.917 226.839 195.323 230.578 196.818 240.448C201.984 230.031 202.729 214.781 204.906 204.911C199.286 208.609 194.302 207.932 190.969 206.599Z" fill="#F59E0B"/>
        <path d="M193.76 248.849C197.182 249.797 200.542 253.036 203.927 253.24C209.896 253.594 215.568 250.255 219.052 249.505C206.943 252.375 194.99 249.193 193.76 248.849Z" fill="#F59E0B"/>
        <path d="M207.953 262.958C210.594 261.802 213.021 260.302 215.234 258.453C215.12 258.547 214.432 259.01 211.474 259.698C218.495 257.328 219.068 249.505 219.068 249.505C219.068 249.505 216.177 255.583 210.552 257.49C204.922 259.401 205.021 259.057 205.021 262.391C205.021 265.667 204.125 268.328 207.438 270.229C206.375 267.859 205.24 264.094 207.953 262.958Z" fill="#F59E0B"/>
        <path d="M199.479 256.12C196.365 253.896 195.115 252.13 193.802 249.146C193.974 250.396 194.854 255.286 198.234 257.323L196.51 257.078C196.51 257.078 200.51 259.422 200.88 261.698C201.182 263.583 198.526 268.708 196.208 271.568C199.005 270.474 201.734 268.339 201.927 264.938C202.266 259.01 202.703 258.422 199.479 256.12Z" fill="#F59E0B"/>
        <path d="M213.479 217.677C213.589 217.688 213.693 217.76 213.786 217.896C213.88 218.031 213.969 218.224 214.047 218.474C214.125 218.729 214.193 219.031 214.245 219.396C214.302 219.755 214.349 220.161 214.38 220.615C214.411 221.073 214.432 221.568 214.443 222.099C214.453 222.63 214.448 223.188 214.432 223.776C214.411 224.365 214.385 224.974 214.344 225.594C214.302 226.214 214.25 226.844 214.188 227.474C214.125 228.109 214.052 228.734 213.964 229.349C213.88 229.969 213.792 230.568 213.688 231.146C213.589 231.729 213.479 232.276 213.365 232.797C213.25 233.318 213.135 233.797 213.01 234.234C212.891 234.672 212.766 235.063 212.635 235.406C212.51 235.75 212.38 236.036 212.255 236.266C212.13 236.5 212.005 236.672 211.885 236.786C211.766 236.896 211.651 236.948 211.542 236.938C211.432 236.927 211.328 236.854 211.229 236.719C211.135 236.583 211.052 236.391 210.974 236.141C210.896 235.885 210.828 235.578 210.771 235.219C210.714 234.859 210.672 234.453 210.635 233.995C210.604 233.542 210.583 233.047 210.573 232.516C210.568 231.984 210.573 231.422 210.589 230.833C210.604 230.245 210.635 229.641 210.672 229.021C210.714 228.396 210.766 227.771 210.828 227.135C210.896 226.505 210.969 225.88 211.052 225.26C211.135 224.646 211.229 224.047 211.328 223.464C211.427 222.885 211.536 222.333 211.651 221.818C211.766 221.297 211.885 220.818 212.005 220.375C212.13 219.938 212.255 219.547 212.38 219.203C212.51 218.865 212.635 218.578 212.76 218.344C212.885 218.115 213.01 217.943 213.13 217.828C213.25 217.719 213.365 217.667 213.479 217.677Z" fill="#F59E0B"/>
        <path d="M225.87 295.057C225.87 295.057 217.49 292.698 208.49 283.359C208.521 286.24 208.651 294.635 208.651 294.635C208.651 294.635 205.964 292.042 200.667 283.875C199.974 286.349 198.161 291.458 197.318 293.828C198.891 295.849 200.479 298.042 201.557 300.385C198.604 290.375 200.635 285.63 200.635 285.63C200.635 285.63 204.453 298.344 214.521 305.859C209.255 291.625 210.443 286.745 210.443 286.745C210.443 286.745 215.51 298.583 225.182 301.984C230.005 293.422 234.177 290.109 236.036 286.557L236.844 284.505C236.281 285.385 231.469 289.453 225.87 295.057Z" fill="#F59E0B"/>
        <path d="M290.677 177.661C288.125 184.922 278.542 192.099 278.542 192.099C278.542 192.099 280.849 191.781 286.885 190.214C281.214 199.214 268.047 200.5 263.219 200.661C284.5 200.354 286.198 194.859 289.969 185.578C288.432 187.276 285.208 189.036 285.208 189.036C285.208 189.036 291.099 181.135 293.438 172.089C277.542 186.234 256.906 189.036 256.906 189.036C256.906 189.036 273.083 189.26 290.677 177.661Z" fill="#F59E0B"/>
        <path d="M183.25 172.078C183.172 181.302 187.401 188.484 187.401 188.484L185.245 188.88L188.573 189.958C188.573 189.958 186.714 185.448 185.349 177.219C187.896 182.12 191.323 184.37 197.88 190.156C198.339 189.781 199.323 188.557 200.297 187.271C196.776 184.578 184.807 175.24 183.25 172.078Z" fill="#F59E0B"/>
        <path d="M224.667 209.438C224.667 209.438 222.583 216.286 221.057 221.411C219.531 226.531 218.823 230.068 218.823 230.068L224.667 220.042L226.385 223.286C226.385 223.286 242.234 225.234 249.005 213.474C239.354 211.745 228.693 212.536 228.693 212.536L226.313 217.297C226.047 214.62 225.5 212 224.667 209.438Z" fill="black"/>
        <path d="M190.37 212.083C190.37 212.083 188.427 219.443 196.708 222.844C196.49 228.182 199.229 233.807 199.229 233.807C199.229 233.807 204.49 220.536 203.26 212.094C200.234 215.849 199.583 217.505 199.583 217.505C199.583 217.505 198.938 214.042 198.51 213.682C193.974 211.724 190.37 212.083 190.37 212.083Z" fill="black"/>
    </g>
    <defs>
        <filter id="filter0_d_1_26" x="121.88" y="116.062" width="255.988" height="275.99" filterUnits="userSpaceOnUse" color-interpolation-filters="sRGB">
            <feFlood flood-opacity="0" result="BackgroundImageFix"/>
            <feColorMatrix in="SourceAlpha" type="matrix" values="0 0 0 0 0 0 0 0 0 0 0 0 0 0 0 0 0 0 127 0" result="hardAlpha"/>
            <feOffset dy="4"/>
            <feGaussianBlur stdDeviation="2"/>
            <feComposite in2="hardAlpha" operator="out"/>
            <feColorMatrix type="matrix" values="0 0 0 0 0 0 0 0 0 0 0 0 0 0 0 0 0 0 0.25 0"/>
            <feBlend mode="normal" in2="BackgroundImageFix" result="effect1_dropShadow_1_26"/>
            <feBlend mode="normal" in="SourceGraphic" in2="effect1_dropShadow_1_26" result="shape"/>
        </filter>
    </defs>
</svg>