<svg xmlns="http://www.w3.org/2000/svg" viewBox="0 0 64 64" fill="currentColor"><path d="M64,33c0,.61,0,1.22,0,1.83-.06,1.09-.17,2.17-.25,3.25a12.22,12.22,0,0,1-.65,2.6c-.53,1.72-1.19,3.39-1.87,5.05-.16.39-.34.78-.48,1.19a9.08,9.08,0,0,1-.92,1.71A32.51,32.51,0,0,1,57,52.46a34.89,34.89,0,0,1-3.31,3.35A34.15,34.15,0,0,1,50,58.61a32.33,32.33,0,0,1-3.32,1.94A31.05,31.05,0,0,1,40,63.06a28.12,28.12,0,0,1-4.08.73,23.6,23.6,0,0,1-2.38.18c-.59,0-1.18,0-1.76,0-1,0-2.07-.09-3.09-.2a39.37,39.37,0,0,1-4.32-.74,23,23,0,0,1-4.55-1.61,33.4,33.4,0,0,1-6-3.46,34.89,34.89,0,0,1-3.07-2.5,36.49,36.49,0,0,1-5.8-6.78c-.65-1-1.25-2-1.86-3a2.06,2.06,0,0,1-.19-.56,30.57,30.57,0,0,0-1-3A19.52,19.52,0,0,1,1,39.9C.74,38.82.57,37.71.39,36.61c-.12-.74-.2-1.49-.27-2.24,0-.53-.07-1.07-.08-1.6,0-.77,0-1.55,0-2.32s.09-1.52.14-2.28a21.64,21.64,0,0,1,.41-3c.09-.41.22-.81.35-1.21a47,47,0,0,1,2-5.21,38.75,38.75,0,0,1,2.54-4.7,31.82,31.82,0,0,1,3-3.94,28.62,28.62,0,0,1,4.81-4.32,30,30,0,0,1,7.7-3.91A38.55,38.55,0,0,1,26.72.41,18.66,18.66,0,0,1,29.4.09l1.39,0c.5,0,1,0,1.48,0,.84,0,1.69.09,2.53.15S36.29.27,37,.39c1.23.19,2.46.44,3.69.65a12.21,12.21,0,0,1,2.36.82c1.13.45,2.23,1,3.31,1.54s2.13,1.18,3.15,1.84a35.59,35.59,0,0,1,4,3.08,31.54,31.54,0,0,1,2.52,2.52,28.93,28.93,0,0,1,2.59,3.34A29.68,29.68,0,0,1,62,20.9a30.54,30.54,0,0,1,1.28,4.77c.18,1,.32,1.94.43,2.92.09.75.13,1.51.18,2.27S64,32.31,64,33ZM25.37,50.59h0a.37.37,0,0,0,0-.14c.05-.23-.06-.35-.28-.27a.64.64,0,0,0-.25.24.34.34,0,0,1-.44.18l-.16-.27L24.7,50l-.17-.23a.74.74,0,0,1-.52.35l-.33.11a.36.36,0,0,0-.25.28l.13.07a.67.67,0,0,1,.14.09c.18.12.2.2.08.38a2.92,2.92,0,0,1-.23.29.46.46,0,0,0,.53,0,1.2,1.2,0,0,1,.24-.15s.11,0,.17,0a.46.46,0,0,1-.07.14s-.1,0-.13.1a.87.87,0,0,0-.08.22,1,1,0,0,1,1.63.51h-.25c-.14,0-.25.07-.27.21a.21.21,0,0,0,.11.26.29.29,0,0,0,.36-.09c.06-.06.09-.14.15-.21s.29-.2.48,0a2.51,2.51,0,0,0,.46.32c.19.1.4.17.6.26s.24.18.41.16.24-.18.34-.29.28-.15.45,0a2.73,2.73,0,0,0,.47.37,1.16,1.16,0,0,0,.81.17c0-.25,0-.25-.15-.28a.59.59,0,0,1-.14,0c-.05,0-.11-.06-.12-.1a.19.19,0,0,1,.07-.14,1,1,0,0,1,.2-.12l.13.11a1.92,1.92,0,0,0,.91.46,5.8,5.8,0,0,0,1.5,0,5.33,5.33,0,0,1,1.78.06.43.43,0,0,0,.16,0c0-.19-.07-.27-.2-.32s-.19-.07-.21-.2a.31.31,0,0,1,.41,0c.13.07.26.16.39.24a3,3,0,0,0,.4.21.45.45,0,0,0,.54-.13c-.28-.11-.29-.19,0-.4.22.37.52.51.81.38a.3.3,0,0,0,.22-.39c-.12,0-.27,0-.34-.11s-.06-.23-.09-.37H36a.89.89,0,0,1-.61-.21,1.06,1.06,0,0,1-.26-.33.16.16,0,0,1,.08-.24.18.18,0,0,1,.21.15c0,.07,0,.15,0,.24l.79,0a.78.78,0,0,0,.49.63l1,.41c0-.12.06-.24.08-.37s.06-.23.19-.26.15.1.21.17a.53.53,0,0,0,.74.21c0-.34,0-.38.35-.39a1.06,1.06,0,0,0,.31,0,.3.3,0,0,0,.19-.14.16.16,0,0,0-.08-.22l-.11-.09-.75-.61a.87.87,0,0,1,.61.14.65.65,0,0,1,.26.31.25.25,0,0,0,.28.22,1.86,1.86,0,0,0,.33,0c.25,0,.3-.13.27-.36A7,7,0,0,1,39.8,51a2,2,0,0,0-.9-.51c.29-.36.78-.26,1.07-.6a.24.24,0,0,1-.15.33c-.13.07-.19.19-.12.31a1.34,1.34,0,0,0,1,.79,1.52,1.52,0,0,0,.81-.14l1.82-.89c.14-.07.17-.17.1-.33a1,1,0,0,0-.1-.21c.31.24.61,0,.95.09l-.2-.35a.87.87,0,0,0-.68-.41.3.3,0,0,0-.33.12,1.16,1.16,0,0,1-1.06.49c-.34,0-.68,0-1.05-.07a.2.2,0,0,0,0-.33.63.63,0,0,0-.65-.15c-.14.3-.23.34-.54.23l-.21-.08a2.37,2.37,0,0,0-.34-.13.5.5,0,0,0-.61.18l-.1.12a1.81,1.81,0,0,0-.15-.19,1.86,1.86,0,0,0-.84-.57.54.54,0,0,0-.68.29l.34.24c.08.06.12.14,0,.22s-.13,0-.2,0a3,3,0,0,0-.32-.29,3.07,3.07,0,0,0-.56-.38.46.46,0,0,0-.67.24l0,0,.28.08c.22.07.23.08.19.36l-.22-.07a5.46,5.46,0,0,1-1.26-.82,6.73,6.73,0,0,0-1.29-.89l-.14-.1c.31,0,.38-.12.31-.3a.31.31,0,0,0-.18-.16c-.23,0-.32-.17-.26-.41h-.67c0,.37,0,.38-.37.39a1.61,1.61,0,0,0-.31,0c-.15,0-.2.1-.2.26s.08.2.21.2h.09c.09,0,.17,0,.14.16s-.12.11-.2.07a3.37,3.37,0,0,1-.32-.19.47.47,0,0,0-.62,0c.05.26.33.26.47.46l-.14.16c-.39-.44-.94-.39-1.39-.55-.18.13-.1.42-.38.44a.53.53,0,0,0-.42-.34l-.76-.08c0,.21,0,.4-.18.49s-.34,0-.49-.15c-.08.22-.28.39-.15.65a2,2,0,0,1,.92.35l.39.3a1.88,1.88,0,0,0,1.24.48s0,0,.07,0a.81.81,0,0,0,.58.59,2.71,2.71,0,0,1,.39.17c.09,0,.17.11.26.16-.13.21-.2.26-.37.21a.85.85,0,0,1-.31-.13,1.46,1.46,0,0,1-.54-.64l-.75-.05h0c.12-.17.12-.23-.07-.3a9.06,9.06,0,0,1-1.5-.82c-.41-.26-.84-.5-1.26-.73-.19-.1-.25-.08-.39.08a1.32,1.32,0,0,1-.18.22c-.15.13-.39.1-.43,0-.09-.4-.43-.53-.74-.76-.07.16-.14.28-.19.41a2.52,2.52,0,0,1-.12.29.25.25,0,0,1-.41.07,3.88,3.88,0,0,0-.33-.23.53.53,0,0,0-.49,0,.26.26,0,0,0-.12.17.27.27,0,0,0,.11.17.76.76,0,0,0,.21.08c.16.06.17.1.08.31a.69.69,0,0,0-.74.29c-.05.08-.18.11-.29.17-.06-.13-.08-.24,0-.3a2.39,2.39,0,0,1,.37-.15.92.92,0,0,0-1.25-.78l-.06.35a.54.54,0,0,1-.55-.13l-.16-.16c-.19-.14-.27-.13-.4.05l-.08.13c.05.05.07.1.12.13.3.2.6.41.91.59a4.56,4.56,0,0,1,1.26.91.38.38,0,0,0,.2.1h.7c.1-.4.12-.42.52-.53l.5-.15a1.11,1.11,0,0,0,.92.26,1.38,1.38,0,0,0,.72.65c.17.08.32.17.48.26s.13.12.24.22c-.24,0-.4,0-.56.09s-.19.06-.14.29h.48c.05,0,.15,0,.16.08a.29.29,0,0,1,0,.2.28.28,0,0,1-.17.09c-.12,0-.24,0-.4,0,.1-.3-.17-.38-.29-.55.14-.18.46-.27.23-.6ZM47.29,38.23c-.08-.18-.22-.12-.33-.07a.26.26,0,0,0-.14.32,2.3,2.3,0,0,1,.1.35c0,.16.06.21.2.26a3.75,3.75,0,0,1,.65.28.37.37,0,0,1,.22.31.72.72,0,0,1-.64-.21c-.1-.1-.19-.21-.3-.3a.3.3,0,1,0-.36.4,1.22,1.22,0,0,0,.31.33c.24.17.5.31.75.47a.8.8,0,0,1,.37.4c-.18,0-.3-.08-.43-.15a.77.77,0,0,0-.75-.07c.07.29.1.34.41.53a.69.69,0,0,1,.43.6A4,4,0,0,1,49.9,43l-.76-.25a.62.62,0,0,1-.52-.59s0,0-.06,0a1.51,1.51,0,0,1-1-.42c-.12-.11-.26-.19-.4-.3L47,42c.44.18.94.28,1.18.8a.77.77,0,0,1-.68-.13.53.53,0,0,0-.52-.11c0,.24,0,.24.25.28s.35.07.33.45h.64c0,.32.13.41.39.39.06,0,.15,0,.16-.07a.26.26,0,0,0,0-.21.32.32,0,0,0-.18-.12,1.28,1.28,0,0,0-.28-.07V43c0-.13.08-.16.2-.12a1.74,1.74,0,0,1,.87.69.29.29,0,0,1-.3.08c-.26,0-.33,0-.27.31l.05.13.38,0c.12,0,.18,0,.13.19l-.1,0a.36.36,0,0,0-.45.25.31.31,0,0,1-.39.21,1.65,1.65,0,0,1-.42-.16,2.64,2.64,0,0,1-.37-.31.8.8,0,0,0-.67-.23s-.12.06-.12.1a.22.22,0,0,0,.06.17.41.41,0,0,0,.19,0h.35l-.07.39h-.65a.44.44,0,0,0,.18.5c.15.14.14.15,0,.31a1.65,1.65,0,0,0-1.41-.8q0,.14.09.24a1.81,1.81,0,0,0,.71.74,6.22,6.22,0,0,1,1.46,1c.06-.54.48-.74.83-1-.31-.25-.38-.25-.65,0l-.41.31-.16-.26.17-.07c.31-.12.34-.2.17-.48l-.21-.39a.69.69,0,0,1,.54.13c.2.12.39.28.58.42s.22.21.38.21c.13-.29-.21-.48-.12-.76H49a.27.27,0,0,0,.28-.16.43.43,0,0,1,.49-.33c0-.21-.09-.28-.24-.35s-.2-.09-.16-.32a.47.47,0,0,1,.38.07c.2.11.3.08.42-.12l.27-.5a.94.94,0,0,1,.54-.53c.11,0,.21-.08.22-.22A.26.26,0,0,0,51,42.1c-.09-.05-.21-.11-.15-.23s.15-.13.24-.16a1.32,1.32,0,0,1,.28,0h.31A1.22,1.22,0,0,1,52,40.54a1.09,1.09,0,0,0,.08-.15c.1-.23.06-.31-.17-.38l-.29-.09.78-.21a.66.66,0,0,0,0-.15c-.08-.28-.06-.33.18-.49,0,0,.1-.06.13-.11s.14-.19.13-.26-.16-.11-.25-.15-.12,0-.16,0a.67.67,0,0,1-.13-.15c.36,0,.46-.07.51-.39a1.29,1.29,0,0,0,0-.19c.05-.39.05-.39.4-.48v-.69c-.27,0-.57,0-.76-.25l.18,0,.52-.13c.24-.07.27-.15.18-.38s-.07-.19-.11-.32h-.79c.05-.3-.1-.4-.32-.45A.35.35,0,0,1,52,35a.2.2,0,0,1-.13-.29,1.31,1.31,0,0,1,.69.27c.16.11.32.24.49.34a.82.82,0,0,0,.51.17,5.83,5.83,0,0,0,.1-.73c0-.39,0-.79,0-1.21-.24,0-.55,0-.76-.26.16-.13.32-.08.47-.08s.38-.07.45-.37c-.16-.17-.53-.14-.54-.52l.26,0a.32.32,0,0,0,.3-.35.34.34,0,0,0-.23-.36c-.11-.05-.26-.07-.29-.25a.54.54,0,0,0,.4-.58.76.76,0,0,0-.43-.66l.4-.06v-.82c-.43-.1-.47-.16-.48-.6v0a.77.77,0,0,0-.36-.81.87.87,0,0,0,.44-1l-.72-.22a.47.47,0,0,1-.38-.41l.28-.08c.25-.06.26-.08.18-.33l-.06-.16A15.32,15.32,0,0,1,51.76,23c-.08-.39-.08-.39-.5-.41H51.2c-.31,0-.35-.07-.35-.39v-1L50.37,21c-.24-.12-.48-.23-.71-.36a.57.57,0,0,1-.28-.37l.49,0a1.39,1.39,0,0,0-.56-1c-.24-.18-.5-.33-.76-.49l-.45-.26.3-.27c-.25-.21-.14-.44-.2-.67l-.64-.31-.83-.37a.78.78,0,0,1-.48-.75.39.39,0,0,0,0-.14,2.85,2.85,0,0,0-.31.12l-.23.17c-.19.12-.28.07-.35-.21.12,0,.24,0,.36,0s.25-.1.18-.28a.3.3,0,0,0-.25-.2.22.22,0,0,1-.2-.29.34.34,0,0,0,0-.1h-.3c-.32,0-.37,0-.39-.37,0,0,0,0,0,0-.32-.1-.65-.19-.95-.31a8,8,0,0,1-1.69-1c-.51-.35-1-.72-1.53-1a2.57,2.57,0,0,0-2.07-.36.34.34,0,0,1-.29-.08,7.46,7.46,0,0,0-2.71-1.14,4.57,4.57,0,0,0-1.84-.08c-.23,0-.45.11-.68.16a.75.75,0,0,0-.87-.38,1.29,1.29,0,0,0-.72.37l-.15-.16a.73.73,0,0,0-.7-.22c-.24.05-.29.16-.15.36l.17.24a.23.23,0,0,1-.31.06c-.12,0-.24-.12-.36-.18a1.09,1.09,0,0,0-.55-.18c-.1.29-.08.33.15.47l.25.18-.27.17a1.82,1.82,0,0,0-1.7-.67c0,.24.14.31.27.39s.14.11,0,.26a1.16,1.16,0,0,0-1.25-.28,1.76,1.76,0,0,1-1.26.07.52.52,0,0,0,0,.17l.19.16c.08.07.14.16.09.25s-.13.07-.19.08a.76.76,0,0,1-.56-.16c-.12-.09-.25-.17-.42-.28,0,.17-.08.29-.11.42s0,.27-.08.41a.63.63,0,0,0-.54-.39c-.32-.05-.5.14-.45.43.21.09.42.17.61.27s.17.2.08.39c-.41-.4-1-.37-1.45-.65-.13.18,0,.3,0,.44s0,.21-.13.25a.24.24,0,0,1-.28-.1c-.06-.09-.12-.2-.26-.15,0,.62-.23.75-.82.56,0,.31-.19.42-.45.49a1,1,0,0,0-.28.14c-.09.06-.17.15-.11.26s.14.07.21.09.11,0,.14,0a.48.48,0,0,1,.09.14l0,.06a3,3,0,0,1-.32-.06c-.1,0-.2-.11-.3-.16a.67.67,0,0,0-.63,0c0,.19.15.28.27.38s.25.18.36.28.16.21.07.37l-1.39-.75c-.13.27.14.42.12.67a.71.71,0,0,1-.8,0c-.1.23-.08.38.11.49s.41.18.62.27h0a.86.86,0,0,1-.39.05,2,2,0,0,0-.59,0,.22.22,0,0,0-.19.28,5.26,5.26,0,0,1,1.72,1.22l-.19.13A16.34,16.34,0,0,0,17,16.43c0,.5-.38.72-.68,1,.23.13.52.18.38.55H16c-.06.27.12.29.27.34s.2.07.17.21-.1.17-.21.19a.5.5,0,0,1-.49-.23.46.46,0,0,0-.48-.2,2.72,2.72,0,0,0,.07.33.74.74,0,0,0,.16.2c.11.11.24.21.36.33s.15.22,0,.35l-.22-.19c-.1-.08-.18-.17-.28-.24s-.24-.13-.43.07c.05.1.09.2.15.3a.41.41,0,0,1,0,.46,2.17,2.17,0,0,0-.12.26l.09,0a.84.84,0,0,1,1.16.05c.29.26.56.53.88.83l-.31,0c-.27,0-.34.18-.19.41l.2.28a2.38,2.38,0,0,1-1-.53.31.31,0,0,0,.06-.06l.39,0c.19,0,.29-.17.2-.32a.52.52,0,0,0-.22-.16c-.21-.08-.21-.08-.2-.31,0,0,0-.05,0-.07h-.7a.44.44,0,0,0,.18.47c.14.13.13.16,0,.32a2,2,0,0,0-1.67-.8.32.32,0,0,0,.13.43.43.43,0,0,1,.13.14.3.3,0,0,1,0,.21s-.11.05-.17.05l-.31,0c-.1,0-.19,0-.2.16a.24.24,0,0,0,.12.29,2.27,2.27,0,0,0,.25.06.19.19,0,0,1,.18.19l-.11,0a.62.62,0,0,1-.47-.17c-.23-.15-.41-.06-.43.22a.28.28,0,0,0,.17.32l.24.11a.27.27,0,0,1,.19.3.38.38,0,0,1-.53-.12c-.09-.08-.13-.22-.32-.2l-.12.23a2,2,0,0,1,.76.78c-.21.06-.34-.06-.49-.14a.68.68,0,0,0-.66-.08.44.44,0,0,0,0,.1c0,.7-.13.58.54.94a8.13,8.13,0,0,1,.81.47.63.63,0,0,1,.27.42,1,1,0,0,1-.58-.21c-.16-.13-.32-.27-.49-.39a.93.93,0,0,0-.82-.2.52.52,0,0,0,.11.47,3.71,3.71,0,0,0,.29.27.62.62,0,0,1,.23.35.68.68,0,0,1-.45-.2A.61.61,0,0,0,11.6,25c-.12,0-.16.07-.18.18a.46.46,0,0,0,.25.5c.14.08.29.14.43.21a.31.31,0,0,1,0,.1c-.08.21-.18.25-.36.12a6.41,6.41,0,0,1-.52-.39c-.19.29-.18.46,0,.66a1.61,1.61,0,0,0,.3.21c.17.1.36.18.52.29a.55.55,0,0,1,.31.4l-.45-.2c-.12-.07-.24-.15-.37-.21-.33-.14-.53-.05-.65.31.07.13.21.14.33.18s.21.08.19.32l-.4,0a.78.78,0,0,0,.43.85.29.29,0,0,0,.4-.19c.06-.14,0-.18-.19-.27L11.52,28l-.08-.06,0-.24a1.27,1.27,0,0,1,.65.27c.19.14.37.3.55.45a1.51,1.51,0,0,0,1,.38.32.32,0,0,1,.28.16,2.58,2.58,0,0,0,.49.5c.33.24.69.44,1,.66l.67.43c-.25.21-.28.22-.49.07-.38-.26-.75-.53-1.11-.8a7.65,7.65,0,0,0-2-1.15,1.8,1.8,0,0,0-.7-.16,3,3,0,0,0,.15.27s.1.09.14.14.05.19-.07.23a2.17,2.17,0,0,0-1.56-.62c0,.07,0,.15.08.21a1.73,1.73,0,0,0,.75.69l.61.35a1.05,1.05,0,0,1,.44.49c-.43-.06-.85-.12-.9-.61l-.7-.11c-.16,0-.32-.06-.44.11a.47.47,0,0,0,.31.38c.15.07.3.12.45.18a1,1,0,0,1,.26.16.37.37,0,0,1,0,.24s-.1.1-.12.09a.38.38,0,0,1-.18-.15.51.51,0,0,1,0-.22h-.68c-.06.24-.07.27.07.37a.41.41,0,0,1,.2.48,1.53,1.53,0,0,1,.8.15,1.42,1.42,0,0,1,.46.67,1.33,1.33,0,0,1,1.2.56l-.47.15a1.34,1.34,0,0,0-.86-.71c-.32-.11-.63-.22-.93-.35a2.3,2.3,0,0,1-.33-.19V32c.42.11.9.12,1.07.71-.16,0-.33,0-.42-.07s-.09-.23-.14-.37h-.65c-.07.17-.06.31.05.38a.45.45,0,0,1,.23.48.91.91,0,0,1,1,.36.91.91,0,0,0,.82.37s.05,0,.09,0c0,.28.14.39.39.43a.7.7,0,0,1,.19.06c.05,0,.09.08.16.14a1.52,1.52,0,0,1-.23.11.51.51,0,0,1-.62-.19A3.88,3.88,0,0,0,12,34a1.89,1.89,0,0,0-1.53-.46c0,.23,0,.26.17.29l.38.07,0,.33a2.08,2.08,0,0,1,.25,0,.8.8,0,0,1,.7.42A.27.27,0,0,1,12,35a2.28,2.28,0,0,0-1.65-.8.81.81,0,0,0,.36.63,7.23,7.23,0,0,0,.66.4c.26.14.54.27.8.42a.43.43,0,0,1,.23.47,2.23,2.23,0,0,0-1.77-.65c-.07.22.08.26.21.31s.23.08.22.32c0,0,0,0,0,.08.81.1,1.09.27,1.27.76a4.89,4.89,0,0,1-1.55-.77c-.07.25-.08.27.06.37a.45.45,0,0,1,.2.48,2.47,2.47,0,0,1,1.69,1,1.25,1.25,0,0,1-.51-.14c-.25-.13-.48-.31-.72-.46s-.18-.16-.31-.16a.77.77,0,0,0,.13.56,2,2,0,0,0,.85.74c.49.26,1,.49,1.49.72.14.07.17.15.1.29l-.3-.1a7.78,7.78,0,0,1-1.57-.81l-.29-.16a.63.63,0,0,0,.28.75c.2.13.43.23.65.36s.46.25.68.4.19.15.24.38A2.87,2.87,0,0,1,12,39.71a.54.54,0,0,0,.18.78,3.11,3.11,0,0,0,.67.3,2.41,2.41,0,0,0,.48.07.35.35,0,0,0,.33.43l.13.05a.18.18,0,0,1,.13.26c-.43.11-.51.07-.56-.36-.22,0-.45,0-.67,0a.3.3,0,0,0-.29.27c.28.15.55.28.81.44.48.31.95.64,1.43.94a3,3,0,0,0,1.14.5,1,1,0,0,0,.67,0c-.1-.26-.46-.08-.54-.37l.35-.19a.94.94,0,0,0,.58.46l.74.31c.11-.22-.17-.52.13-.77l.45.29a.85.85,0,0,0,.52.14c.08-.18.18-.37.25-.57s.08-.32-.11-.42h-.08a3,3,0,0,1-2.09,0c-.55-.21-1.09-.45-1.64-.66-.29-.12-.58-.21-.89-.32.13-.36-.25-.39-.42-.63a1.18,1.18,0,0,1,.26,0c.1,0,.19.12.29.18a.86.86,0,0,0,.66.17.48.48,0,0,0-.19-.54c-.13-.1-.27-.17-.4-.27S14,40,14,39.76c.28-.06.64.07.8-.31-.42-.34-1-.3-1.37-.7a.58.58,0,0,1,.55-.14,1.33,1.33,0,0,0,.11.32.63.63,0,0,0,.76,0,.22.22,0,0,0,0-.36l-.19-.07c-.18-.07-.19-.11-.08-.35h.79a.35.35,0,0,1,.24-.47.59.59,0,0,0,.16-.15L15.6,37c-.16-.1-.5,0-.5-.41.14.06.26.09.36.14s.25.18.38.25c.32.19.53.09.61-.29a.15.15,0,0,0-.05-.06l-.19-.08c-.21-.08-.22-.11-.11-.36.33,0,.35,0,.38.41.2,0,.41,0,.62,0a.22.22,0,0,0,.23-.18.24.24,0,0,0-.16-.27l-.11,0c-.22-.08-.22-.09-.14-.38A5.5,5.5,0,0,1,19,37.23a1.93,1.93,0,0,1-.4-.15c-.22-.1-.44-.21-.67-.3a.23.23,0,0,0-.34.14,1.53,1.53,0,0,0,.3.19c.29.13.52.3.54.62.26.09.48.16.7.25s.35.19.53.28a1.29,1.29,0,0,0,.57.19c0-.18,0-.34.06-.5a.23.23,0,0,1,.23-.18c.11,0,.17.06.21.16a.36.36,0,0,0,0,.11c.07.15.1.16.31.11,0-.1,0-.19,0-.28,0-.3.14-.41.42-.35l.24.06.59-.8s-.05-.05-.08-.06a1.57,1.57,0,0,1-.86-.52,4.94,4.94,0,0,0-1-.91l.43-.2a1.84,1.84,0,0,1-.06-1,1.7,1.7,0,0,0,0-.22c0-.21,0-.28-.24-.31a2.64,2.64,0,0,0-.28,0c-.29,0-.34-.06-.27-.37a.53.53,0,0,1,.47.12c.1.07.2.16.3.22a.43.43,0,0,0,.53,0,.18.18,0,0,0-.05-.32l-.2-.11a.26.26,0,0,1,.24-.27l.25,0c.33-.07.35-.09.4-.41a5.23,5.23,0,0,0,.56,0c.2,0,.24-.15.14-.33s-.09-.15-.13-.22a.21.21,0,0,1,.33-.06c.2.14.4.26.61.38s.56.28.83.44a1,1,0,0,1,.47.44c-.11.1-.22.18-.36.13s-.07-.26-.16-.38a4.52,4.52,0,0,0-.82,0,.72.72,0,0,0,.3.61,6.38,6.38,0,0,0,.57.32,1.16,1.16,0,0,1,.67.6h1.1c0-.35.06-.4.36-.42a1.86,1.86,0,0,0,.34,0,.18.18,0,0,0,.15-.23c-.32,0-.42-.08-.41-.24s.08-.19.36-.14l.06.15c.12.27.26.31.47.1a2.72,2.72,0,0,0,.34-.42c.4-.63.42-.65,1.14-.74l0-.49c.48-.06.63-.16.71-.49a.55.55,0,0,0-.58-.14,3,3,0,0,0-.41.19,3.46,3.46,0,0,0-.41.23l-.19-.28a.37.37,0,0,0-.57-.07,7.77,7.77,0,0,1-1.29.75,1.09,1.09,0,0,0-.57-.53c-.11-.06-.24-.12-.35-.19a.56.56,0,0,1-.3-.37l.29-.12c.44-.13.45-.14.27-.56-.08-.19-.13-.21-.33-.19a1.2,1.2,0,0,0-.63.3.33.33,0,0,1-.42,0c-.2-.12-.43-.2-.63-.32a3.22,3.22,0,0,1-1.24-1.16A1.51,1.51,0,0,1,22,28.1h.65c0-.46-.28-.67-.7-.52a.59.59,0,0,1,0,.13c0,.23,0,.3-.24.33a2.11,2.11,0,0,0-.25,0,.82.82,0,0,0-.28.07.24.24,0,0,0-.11.27c0,.11.1.12.19.13a.43.43,0,0,1,.19,0s0,.1.07.14l0,.05-.39-.16a5.25,5.25,0,0,0-.55-.22.39.39,0,0,0-.54.27l-.05.1c-.42.18-.73-.12-1.1-.25v.25a1.64,1.64,0,0,1,0,.22c-.05.2-.2.25-.35.12a1.89,1.89,0,0,0-.92-.42l-1.1-.12a3.13,3.13,0,0,1-1.17-.23,1.17,1.17,0,0,1-.64-.58,1.16,1.16,0,0,0,.22-.06.28.28,0,0,0,.14-.32.19.19,0,0,0-.22-.17.22.22,0,0,0-.23.21.19.19,0,0,1,0,.08.21.21,0,0,1-.35.13.32.32,0,0,1-.16-.33l.53,0c.05-.78.11-.7-.55-1.06l-.05,0c-.15-.08-.31-.15-.46-.24a.56.56,0,0,1-.31-.57c.18,0,.26.16.35.27a.55.55,0,0,0,.62.2c0-.17,0-.34-.06-.51-.08-.52,0-.6.46-.74l-.23-.4a.36.36,0,0,1,.06-.51l.21-.24a3,3,0,0,0-.37-.25c-.1-.06-.23-.08-.34-.14a.42.42,0,0,1-.28-.37,1.12,1.12,0,0,1,.67.27,4.26,4.26,0,0,0,.5.32.5.5,0,0,0,.48,0c-.11-.3.07-.44.29-.56l.23-.13a.61.61,0,0,0,.31-.41l-.24-.12-.71-.31a1.83,1.83,0,0,1-.82-.66h.38a.41.41,0,0,1,.4.2,2.76,2.76,0,0,0,2,1.06c.18-.16.14-.47.42-.54a3.66,3.66,0,0,0,1.07.89c.38.25.78.47,1.16.73a2,2,0,0,1,.63.68,1.24,1.24,0,0,1-.65-.27l-.58-.46A1.75,1.75,0,0,0,17.72,23c-.09,0-.17,0-.18.14a.18.18,0,0,0,.17.2c.11,0,.22,0,.34,0h.32a.31.31,0,0,0,.13.37l.35.23a.37.37,0,0,1-.37.23l-.06-.32c0-.14-.09-.17-.22-.15S18,23.8,18,24s0,.4.05.61a2.54,2.54,0,0,1,1.08.56,6.49,6.49,0,0,0,.55.36,1,1,0,0,0,.74.15,1.79,1.79,0,0,0-.15-.31,2.8,2.8,0,0,0-.41-.35c-.16-.11-.34-.2-.51-.31a.71.71,0,0,1-.3-.5,1,1,0,0,1,.91.79.39.39,0,0,0,.14,0,1.15,1.15,0,0,1,.79.27,2,2,0,0,0,.31.2.81.81,0,0,0,.57.09c.07-.34.14-.66.19-1a.41.41,0,0,0-.07-.42c-.55.07-1-.23-1-.7a1.3,1.3,0,0,0,.21.16,2,2,0,0,0,.47.17.3.3,0,0,0,.25-.09c.14-.14.13-.27-.05-.33a2.26,2.26,0,0,1-.42-.19,5.08,5.08,0,0,1-.68-.46.58.58,0,0,1-.23-.55h0l.23,0c.27.06.27.06.28.35,0,0,0,0,0,.06h.64a.63.63,0,0,0-.31-.72,2.92,2.92,0,0,0-.36-.17c-.2-.08-.4-.14-.59-.23a.49.49,0,0,1-.32-.43l.46.08c.19,0,.3,0,.34-.15a.24.24,0,0,0-.18-.35c-.22-.06-.34-.17-.28-.4l0,0H20.2a.82.82,0,0,1-.78-.32l-.14-.14a.82.82,0,0,0-.69-.28h-.16a1.77,1.77,0,0,0-.83-.82c-.19-.12-.36-.27-.54-.41a1.52,1.52,0,0,1-.12-.21c.64.23,1.26.37,1.47,1.09a1.45,1.45,0,0,1,.89.34,3.61,3.61,0,0,0,.53.33.75.75,0,0,0,.36.07.23.23,0,0,0,.19-.12c0-.11,0-.2-.15-.23l-.17-.05c-.1,0-.18-.1-.14-.23a.32.32,0,0,0,0-.14c-.76-.07-1.05-.29-1-.76l1.46.8a.78.78,0,0,0-.06-.59c-.1-.31-.1-.3-.43-.29-.11,0-.26.06-.32-.11.19-.19.24-.2.44-.09s.3.17.46.24a.25.25,0,0,0,.35-.08c0-.11,0-.19-.23-.26h0c-.21-.07-.21-.07-.16-.35h.47a1.93,1.93,0,0,0,.42,0,.22.22,0,0,0,.2-.26c-.85-.43-1-.56-1.06-.93l.5-.06a.57.57,0,0,0,0-.15,1.85,1.85,0,0,1,0-.74.77.77,0,0,1,.61-.65c.05-.23-.11-.27-.25-.32s-.22-.08-.15-.34a.67.67,0,0,1,.59.14c.17.13.33.28.51.41s.48.16.67-.17c-.3-.13-.4-.43-.61-.67l.2-.13a3.32,3.32,0,0,0,1.82,1l0-.62h0a.45.45,0,0,1,.24.5h.77c.22,0,.3-.08.33-.31a2.34,2.34,0,0,1-1.26-.89,1.56,1.56,0,0,1,.3-.07c.13,0,.26,0,.39,0a.29.29,0,0,1,.26.13,4.79,4.79,0,0,0,.48.53,2.75,2.75,0,0,0,1.38.72l.07-.08a2.27,2.27,0,0,1,.06-.25c0-.07.06-.17.12-.2a.35.35,0,0,1,.44.13,1.41,1.41,0,0,0,.18.23.26.26,0,0,0,.38,0c-.08-.55-.57-.74-.92-1.08l.11-.07c.26-.13.29-.11.46.12a1.55,1.55,0,0,0,.89.63.46.46,0,0,0,.56-.32L29,13.39,28.48,13c-.27-.18-.37-.27-.44-.42a1.77,1.77,0,0,1,1.5,1,1.4,1.4,0,0,1,.9.29l.3.16a.26.26,0,0,0,.35-.12c.05-.09.08-.19.13-.29-.15,0-.29,0-.35-.1s-.08-.22-.11-.33c-.71-.09-.94-.23-1.12-.71a1.36,1.36,0,0,1,.36.13,1,1,0,0,0,.77.18.76.76,0,0,0,.57.59.82.82,0,0,1,.58.61l0,0,.56,0a.58.58,0,0,0,.23,0,.23.23,0,0,0,.14-.15.2.2,0,0,0-.07-.19.94.94,0,0,0-.23-.16L32,13.16a3,3,0,0,1-.28-.31h.61c0,.32.06.4.35.4H33a1,1,0,0,1,.05.12,1.15,1.15,0,0,0,1.16.74.6.6,0,0,0,.5-.3,6.66,6.66,0,0,1-.67-.26,5.45,5.45,0,0,1-.71-.47A2.48,2.48,0,0,0,32,12.52c.09-.3-.09-.4-.33-.46a.44.44,0,0,1-.16-.06c-.1-.05-.12-.13-.05-.25l.44.2a6.21,6.21,0,0,1,1.79,1.1c.29.29.62.2,1,.19.13,0,.15-.12.13-.24s0-.21-.18-.22a.61.61,0,0,1-.19,0s-.06-.08-.09-.13l.05-.05c.37.15.84.09,1.09.58a1.48,1.48,0,0,1-.24.05h-.31c-.09,0-.19,0-.19.12a.32.32,0,0,0,.1.22,6.49,6.49,0,0,0,.61.41.7.7,0,0,0,.23.11.35.35,0,0,0,.44-.17c.1-.17.05-.27-.14-.29a1.41,1.41,0,0,0-.2,0h-.27c0-.32,0-.4.27-.39l.49,0,0,.38a.7.7,0,0,0,.57-.07.46.46,0,0,0,.15-.25c0-.12-.1-.13-.19-.17a6,6,0,0,1-.61-.35,1.49,1.49,0,0,0-1-.34.52.52,0,0,1-.17,0,.34.34,0,0,0-.32-.4L34.56,12a.18.18,0,0,1-.1-.27,2.75,2.75,0,0,1,.95.4c.46.27.92.56,1.39.83a2.07,2.07,0,0,0,.82.26.33.33,0,0,0,.1-.4c0-.16,0-.24.16-.27a1.2,1.2,0,0,0,1.21.17,2.65,2.65,0,0,0,.3-.11.35.35,0,0,1,.34,0c.94.53,1.89,1,2.82,1.58s1.6,1,2.4,1.47a2.69,2.69,0,0,1,.27.2.24.24,0,0,1-.37.07l-.39-.28c-.3-.21-.47-.14-.56.22a1.61,1.61,0,0,0,1.21.43c-.09.27.07.37.25.46s.1.1.17.16l-.24.17-.22-.24a.74.74,0,0,0-.54-.21c-.24,0-.32.16-.26.36a.56.56,0,0,0,.17.26,1,1,0,0,0,.3.2c.21.1.38.23.36.5a1.67,1.67,0,0,1,1.21.52c-.25.21-.26.21-.45,0A1.89,1.89,0,0,0,44.4,18s-.14.07-.14.1a.3.3,0,0,0,.1.17s.11,0,.16,0l.2.06c0,.26-.14.34-.34.37s-.3.05-.36.23c.24.18.47.36.71.52a1.43,1.43,0,0,0,.27.15.35.35,0,0,0,.43-.12c0-.2-.18-.28-.34-.35s-.29-.09-.34-.3a.9.9,0,0,1,.22,0l.78.2a1.05,1.05,0,0,0,1.11-.19c.1.25.14.29.39.29h.47a.8.8,0,0,0,.68.54l.45.16a.33.33,0,0,1,.26.25,1.51,1.51,0,0,1-.18.09c-.2.09-.27.07-.39-.12a1,1,0,0,0-.53-.37,5.35,5.35,0,0,1-1.33-.53.8.8,0,0,0,.31.63,7.07,7.07,0,0,0,.63.44l.64.37a.9.9,0,0,1,.31.33.52.52,0,0,1-.63,0c-.17-.11-.32-.26-.49-.39a3.92,3.92,0,0,0-.32-.25l-.06,0c.1.29-.28.5-.1.83h.74c0,.36,0,.36.38.43l.22,0c.08,0,.14.06.12.16a.78.78,0,0,1-.59-.1l-.5-.21a.33.33,0,0,0-.4.1l.22.27a4.4,4.4,0,0,0,1.12.89l1.57.87c.18.1.35.22.53.33a.45.45,0,0,1-.59.07c-.13-.09-.24-.2-.37-.3s-.47-.38-.73-.55a.49.49,0,0,0-.51,0c0,.15,0,.3,0,.44a.3.3,0,0,0,.22.34,4.23,4.23,0,0,1,1.41.95.74.74,0,0,1,.11.16h-.53c0-.35,0-.35-.38-.41l-.22,0a.19.19,0,0,1-.2-.2.88.88,0,0,1,0-.16c-.27,0-.4.05-.43.29s0,.34,0,.51a.36.36,0,0,0,.15.06,3,3,0,0,1,.86.36c.08,0,.14.09.11.17a.25.25,0,0,1-.17.11,2.3,2.3,0,0,1-.36,0,1.28,1.28,0,0,0,0-.21,1.62,1.62,0,0,0,0-.18h-.35c-.29,0-.37.15-.3.43.52.1.74.33.72.73-.78-.38-1.12-.39-1.45,0a3.71,3.71,0,0,0,.56.35,4,4,0,0,0,.65.11.36.36,0,0,0,.25.42c.1,0,.21.09.18.26l-.57-.21c-.29-.09-.56-.19-.65-.52l-.61-.05a.2.2,0,0,0-.24.15.37.37,0,0,0,.07.25,2.18,2.18,0,0,0,.71.57l.74.37a5.19,5.19,0,0,1,1.23.71,1,1,0,0,1,.24.32,4.25,4.25,0,0,1-2.55-1.51.56.56,0,0,1-.73-.23l-.06-.06c-.13-.11-.16-.1-.34,0a1.8,1.8,0,0,0,.76.83c.35.2.72.38,1.08.58a6.19,6.19,0,0,1,.75.51,1.24,1.24,0,0,1,.44.71l-.38,0a3.65,3.65,0,0,0,.68.81,11.22,11.22,0,0,0,2,1.35c.19.1.37.21.59.35l-.31.15A2.29,2.29,0,0,0,50.78,32c-.44-.18-.9-.35-1-.88-.45.06-.45.06-.81-.25-.09-.07-.2-.12-.31-.19-.18.32-.15.45.12.66s.51.32.57.62l.56.07a.57.57,0,0,1,.5.73h0a4.72,4.72,0,0,0-.41-.37,1.52,1.52,0,0,0-.78-.34.84.84,0,0,0-.71.22.55.55,0,0,0,.33.29,1.06,1.06,0,0,1,.35.18,1.32,1.32,0,0,1,.21.37.74.74,0,0,1,.8.28,3.2,3.2,0,0,0,.25.27.86.86,0,0,0,.79.18c0,.38.34.37.49.6l-.15.17a23,23,0,0,0-3.2-1.81c-.23.27-.24.36,0,.61.05.07.11.13.17.2l.11.18H48.2a3.39,3.39,0,0,0-.45,0,.28.28,0,0,0-.26.28l.67.35a1.06,1.06,0,0,1,.54.58.53.53,0,0,1-.4-.14l-.47-.27a.25.25,0,0,0-.33.07,1.78,1.78,0,0,0-.17.27c.08.05.12.11.18.12.24,0,.35.16.27.43.14,0,.24,0,.34,0a.88.88,0,0,1,.64.28c.08.09.13.18,0,.3a.76.76,0,0,0-.73-.36c-.19,0-.37.08-.42.32a2.36,2.36,0,0,1,.23.13c.18.13.36.25.53.39a.31.31,0,0,1,.07.43l-.24-.11L48,36.71c-.28-.19-.44-.15-.61.22a3.68,3.68,0,0,0,.39.24c.12.07.27.1.39.17s.3.17.3.37c-.45.21-.64-.21-.92-.4a.92.92,0,0,0-.19.55l0,.37Zm-1.46,4.84a1.19,1.19,0,0,0,.76-1.22,9.09,9.09,0,0,0-.15-.91,7,7,0,0,1-.14-.9.73.73,0,0,0-.28-.59l-1.15-.85c-.55-.4-1.13-.77-1.67-1.19A3.45,3.45,0,0,1,42,35.35a15.67,15.67,0,0,1-.21-3.68c0-.62.07-1.23.1-1.85,0-.41.06-.82.08-1.23,0-.84.11-1.67.14-2.51,0-.44,0-.88,0-1.32a8.67,8.67,0,0,0-.73-3.44.59.59,0,0,1,0-.13.51.51,0,0,1,.39-.09,2.36,2.36,0,0,0,.46,0,.23.23,0,0,0,.24-.22.25.25,0,0,0-.22-.23c-.17,0-.34,0-.51,0s-.34,0-.51,0-.25,0-.27-.23l.44-.1a4.08,4.08,0,0,0,1.24-.39,1.16,1.16,0,0,0,.65-.94,1.41,1.41,0,0,0-.31.07c-.18.08-.35.18-.53.27a4.28,4.28,0,0,1-.44.2,1,1,0,0,1-.94-.15c.44-.35.93-.15,1.39-.24A3.64,3.64,0,0,1,43,18.07a2.22,2.22,0,0,0,.21-.37,1.2,1.2,0,0,0,0-1,2.15,2.15,0,0,0-1.45-1.23,4.24,4.24,0,0,0-3.06.39s-.11,0-.2.08a1.22,1.22,0,0,1,.63-.79,3.41,3.41,0,0,1,.6-.24,7.61,7.61,0,0,1,2-.12A.24.24,0,0,1,42,15a2.73,2.73,0,0,0,.79.93,3,3,0,0,0,.7.44,3.93,3.93,0,0,0-.08-.46A2.15,2.15,0,0,0,42,14.34a3.74,3.74,0,0,0-1.48-.2,4.43,4.43,0,0,0-1.79.42,2.72,2.72,0,0,0-1.21,1c-.38-.15-.72-.31-1.08-.44a12.91,12.91,0,0,0-4.13-.68c-.22,0-.44,0-.65,0a6.07,6.07,0,0,0-2.47.6.79.79,0,0,1-.32.1H27.18l-2.11,0c-.43,0-.87,0-1.3,0a5,5,0,0,0-1.59.3,1.66,1.66,0,0,0-.71.44,2.49,2.49,0,0,1,.24.17,5.56,5.56,0,0,1,.5.47.72.72,0,0,1,.06.92c-.1.17-.23.33-.34.49a8.73,8.73,0,0,0-.66,1,2.27,2.27,0,0,0-.22,1.73c.36.1.73-.07,1.08.14-.15.23-.49.25-.53.57a2.22,2.22,0,0,0,.67.5,3.83,3.83,0,0,0,2.87.32,2.25,2.25,0,0,0,1.75-1.83.75.75,0,0,0-.16-.7c-.14-.15-.27-.32-.4-.48a6.34,6.34,0,0,1-.55-.73.43.43,0,0,0-.48-.21,4.58,4.58,0,0,1-.53,0c-.16,0-.2-.07-.2-.22a.61.61,0,0,1,0-.14,4.84,4.84,0,0,0,0-1.37,3.49,3.49,0,0,1,0-.46A32.67,32.67,0,0,0,28.27,16c-.06.09-.08.17-.13.21a3.86,3.86,0,0,1-.51.31,4,4,0,0,1-1.36.25c-.3,0-.6,0-.88,0l-.15.51a4,4,0,0,0,.29.41c.34.36.7.72,1.06,1.07a2.41,2.41,0,0,1,.72,2.17c0,.06,0,.12,0,.22a6.48,6.48,0,0,1,4.59,1.55.71.71,0,0,0-.23-.59c-.16-.13-.34-.24-.51-.37a.67.67,0,0,1-.33-.57,2.28,2.28,0,0,1,1,.19,3.13,3.13,0,0,1,1.5,1.35A5.54,5.54,0,0,1,34.15,25a5.07,5.07,0,0,1-.23,2.32,2.62,2.62,0,0,1-1,1.31,2.1,2.1,0,0,1-1.3.39c0-.13,0-.2.1-.21H32c.23,0,.24,0,.19-.3l-.24.07a5.7,5.7,0,0,1-1.74.22,12.11,12.11,0,0,1-2.39-.36,20.3,20.3,0,0,0-3-.6,4.2,4.2,0,0,0-1.65.18.22.22,0,0,0-.18.25c0,.25,0,.5,0,.74a.24.24,0,0,0,.21.28,4.22,4.22,0,0,0,1.8.11c.26,0,.52-.09.81-.15a4.23,4.23,0,0,1,.07.43c0,.21,0,.41,0,.61a.47.47,0,0,0,.44.47c.14,0,.27-.21.27-.45s0-.3,0-.46l0-.61a1.72,1.72,0,0,1,1.41.11,1.4,1.4,0,0,1,.65,1.11.61.61,0,0,0,.73-.44l.06-.22c.14-.4.3-.47.72-.38a1.86,1.86,0,0,1,.82.43,2,2,0,0,0,.91.45,8.79,8.79,0,0,0,.87.15,3,3,0,0,0,2.25-.69A3.91,3.91,0,0,0,36,28a7.65,7.65,0,0,0,.38-2.64,11,11,0,0,0-.12-1.4c0-.26-.09-.53-.14-.8a1,1,0,0,1,.27.33,3.38,3.38,0,0,1,.33,1.5,10.12,10.12,0,0,1-.23,2.33.4.4,0,0,0,.23.52c.12.08.25.13.37.21s.23.23.11.45c-.37.71-.75,1.42-1.13,2.12a8.45,8.45,0,0,0-1,2.93,5.45,5.45,0,0,0,.24,2.34.29.29,0,0,0,.19.2c.27.12.54.27.82.38a4.41,4.41,0,0,0,.7.23,1,1,0,0,0,.74-.13l-.1-.22a4.43,4.43,0,0,1-.42-2.09,6.42,6.42,0,0,1,.24-1.63c.27-.9.55-1.79.83-2.68a11.6,11.6,0,0,0,.56-2.6c0-.25.09-.3.33-.25s.23.09.35,0a2,2,0,0,0,0-.35c0-.3-.1-.6-.14-.9a4.35,4.35,0,0,1-.08-1c.24-.09.43-.21.44-.48s0-.29,0-.43,0-.53,0-.8a.87.87,0,0,1,.07-.31.64.64,0,0,1,.16.23,5.65,5.65,0,0,1,.39,2.15,11.52,11.52,0,0,1-.38,2.8c-.23,1-.5,2-.74,3a9.67,9.67,0,0,0-.32,3.17,5,5,0,0,0,.7,2.13.53.53,0,0,0,.52.34,1.53,1.53,0,0,1,.46.14,1.82,1.82,0,0,0,.3.11.89.89,0,0,0,.6,0l-.13-.11a3.38,3.38,0,0,1-1-1.68,6.69,6.69,0,0,1-.23-1.78c0-.61,0-1.22.09-1.83s.12-1.27.18-1.9a1.87,1.87,0,0,1,.18-.8,1.88,1.88,0,0,0,.2-.62,7,7,0,0,0,.13-2c0-.69-.09-1.39-.13-2.08s-.06-1.31-.1-2c0-.06,0-.12,0-.18h.07c0,.12,0,.25.07.37s.1.39.32.47c.06,0,.11.13.13.21a11.89,11.89,0,0,1,.27,2.38c0,.35,0,.7,0,1.05A15.19,15.19,0,0,1,41.23,29c-.15.83-.34,1.64-.5,2.47a6.24,6.24,0,0,0,0,2.24A7.74,7.74,0,0,0,41.55,36l1,1.91.09.15c.13-.32.19-.36.53-.32,0,.14,0,.28,0,.42a2,2,0,0,0,.75,1.18c.26.22.55.42.81.63a7.49,7.49,0,0,1,.66.59.8.8,0,0,1,.13.9,2.26,2.26,0,0,0-1.08-1.25,8.18,8.18,0,0,1-1.23-.89.86.86,0,0,0,0,.28,2.24,2.24,0,0,0,.44.82c.31.33.63.64,1,.95a3.67,3.67,0,0,1,1.06,1.32C45.74,42.83,45.78,42.94,45.83,43.07ZM24.23,46l.15,0a2.58,2.58,0,0,0,.87-.59,2.63,2.63,0,0,1,.76-.56,9.41,9.41,0,0,1-.94,1.44,1.25,1.25,0,0,0-.81.13c-.15.07-.3.16-.46.22a1.66,1.66,0,0,1-.38.11,3.49,3.49,0,0,1-.44,0,.57.57,0,0,1-.32.55.58.58,0,0,0-.24.37c0,.16,0,.21.16.23a3.66,3.66,0,0,0,2.14-.29,4.42,4.42,0,0,0,1.26-1c.38-.39.74-.8,1.13-1.17a1.77,1.77,0,0,0,.36-.5c.27-.57.51-1.16.82-1.7.77-1.33,1.56-2.65,2.35-4,.65-1.08,1.3-2.16,1.85-3.29,0-.09.08-.18.13-.28a.47.47,0,0,0-.56.18.87.87,0,0,1-.59.39A2,2,0,0,1,31,37.47l-.2.27A2.09,2.09,0,0,0,30.36,39a3.22,3.22,0,0,0-1.29,1.44c-.19.37-.38.75-.59,1.11a2.69,2.69,0,0,1-.68.86,1.81,1.81,0,0,1,.06-.2A10,10,0,0,1,28.92,40a12.29,12.29,0,0,1,1.35-1.7c.08-.08.15-.15.11-.27a.63.63,0,0,1,.22-.69,3.16,3.16,0,0,0,.2-.27.47.47,0,0,0-.51.11.91.91,0,0,0-.2.24.68.68,0,0,1-.44.3c-.11,0-.15.08-.19.17A17.39,17.39,0,0,1,28,40.45a41.77,41.77,0,0,1-3.21,4.06l-.2.21a.63.63,0,0,1,.11-.29c.64-1.08,1.36-2.1,2.08-3.12a42.44,42.44,0,0,0,2.49-3.73l.09-.19c-.07,0-.1,0-.12,0l-.32.23a8.76,8.76,0,0,0-1.59,1.79c-.39.54-.76,1.09-1.15,1.63a6.74,6.74,0,0,1-1.36,1.46,1.36,1.36,0,0,0-.45.63A4.38,4.38,0,0,1,22,45.72a5.64,5.64,0,0,1-3,.43s-.05,0-.09,0a1.53,1.53,0,0,1,.17-.23c.33-.36.66-.72,1-1.06s.95-.94,1.43-1.41c.88-.88,1.77-1.76,2.63-2.66.62-.64,1.2-1.33,1.79-2a.5.5,0,0,0,.08-.12l-.05,0-.39.39a1.23,1.23,0,0,1-.29.22.18.18,0,0,1-.27-.05l2.23-2.35a4.19,4.19,0,0,0-.79.31,9.09,9.09,0,0,0-2.13,1.62c-.58.58-1.15,1.17-1.72,1.75l-.34.35a11.76,11.76,0,0,1-2.93,2.43,5.76,5.76,0,0,1-4,.62c-.32-.06-.63-.15-.94-.23s-.24,0-.27.18a2.91,2.91,0,0,1,0,.31s-.05.12-.09.13-.1,0-.14-.06-.11-.14-.18-.16a1,1,0,0,0-.71.35s0,.07,0,.11a1.34,1.34,0,0,0,.12.81c.11.23.24.45.37.69.38,0,.78,0,1.17,0,.16,0,.34,0,.36-.22s-.13-.23-.26-.29-.2-.14-.14-.28a.84.84,0,0,1,.72.61c0,.08,0,.2.16.21a3.66,3.66,0,0,0,.65.06,3,3,0,0,0,1.51-.54c.29-.18.58-.36.88-.52a.52.52,0,0,1,.4-.1,1.45,1.45,0,0,1-.6.61L16.15,46.8a3.44,3.44,0,0,0-2-.21,2,2,0,0,1,.26.21,1.06,1.06,0,0,1,.1.33.8.8,0,0,1,.85.25.72.72,0,0,0,.29.17c.23.07.33,0,.39-.24a1.36,1.36,0,0,1,0-.17c.06-.14.13-.17.26-.09a1.07,1.07,0,0,0,.63.15,1.44,1.44,0,0,0,.71-.27c.19-.12.37-.26.57-.38a.57.57,0,0,1,.52-.09c-.09.12-.17.21-.25.3s-.14.12-.2.2c-.21.28-.16.45.16.59a3.57,3.57,0,0,0,2.95,0,6.33,6.33,0,0,0,2-1.38c.24-.24.47-.48.75-.75Zm-16-14.84c.57-1.94.78-3.93,1.26-5.89A2.73,2.73,0,0,1,7.18,23.8a1.13,1.13,0,0,1,.67.19c.23.13.43.29.65.41a1.75,1.75,0,0,0,1.38.2c.13-.25.23-.46.35-.66a1.19,1.19,0,0,0,.15-.71.31.31,0,0,0-.19-.29l-1-.49A3.42,3.42,0,0,0,8,22.08a2.15,2.15,0,0,0-1.18.13.84.84,0,0,0,0,.71l.16.37a.41.41,0,0,1,0,.36L6.25,23a.2.2,0,0,0-.28,0,1.6,1.6,0,0,0-.25.27c-.07.09-.11.2-.17.29a.39.39,0,0,1-.37.21V22.25L4.74,22a.51.51,0,0,0-.67.06.37.37,0,0,1-.44.18v1c-.14.07-.22,0-.31-.08s-.3-.15-.41.1a1.31,1.31,0,0,0-.08.21c-.16.62-.34,1.23-.48,1.85-.23,1-.42,2-.64,3.05l.43.24a2.05,2.05,0,0,1,1,1.48,3.66,3.66,0,0,1,0,1.19c-.05.33-.12.67-.19,1a3.52,3.52,0,0,0,.61.18.8.8,0,0,0,.78-.24c.18-.2.19-.23,0-.46a4.71,4.71,0,0,1-.67-1.58A1.39,1.39,0,0,1,4,29a.71.71,0,0,1,.32-.21,2.4,2.4,0,0,1,2.45.85c.19.25.39.49.59.73A2.7,2.7,0,0,0,8.26,31.17Zm45.4-7.79a2.63,2.63,0,0,0,.08.3c.18.55.36,1.11.56,1.65a10.74,10.74,0,0,1,.87,4.4.29.29,0,0,0,.2.31,1.07,1.07,0,0,0,1.37-.58c0-.08.06-.16.1-.25l.8.32a7.19,7.19,0,0,0,3.34.53l.31,0c0-.14,0-.24,0-.35a2.42,2.42,0,0,1,.07-.47.21.21,0,0,1,.17-.12s.11.08.15.13a.47.47,0,0,1,0,.17c.06.24.12.27.4.21a.59.59,0,0,1,0-.13A15.76,15.76,0,0,0,62,26.9a9.91,9.91,0,0,0-.61-2.35,4.63,4.63,0,0,0-.49-.9,1,1,0,0,1-1.24.4,3,3,0,0,1-.82-.44.58.58,0,0,1-.18-.71c.07-.12.16-.24.24-.35a.7.7,0,0,0,.16-.74,1.52,1.52,0,0,0-1.45.27,2.13,2.13,0,0,1-1.3.56,1,1,0,0,0-.08.75c.1.26.22.52.33.78s.1.26.16.41a1.15,1.15,0,0,1-.77-.16c-.32-.19-.62-.41-.94-.6a6.09,6.09,0,0,0-.81-.4A.64.64,0,0,0,53.66,23.38ZM44.29,6.3l-.47-.15a.43.43,0,0,0-.21-.05.24.24,0,0,0-.17.11c-.24.55-.49,1.1-.69,1.66a5,5,0,0,0-.22,1c0,.23,0,.27.21.37l.57.2a1.66,1.66,0,0,1,.35.18.47.47,0,0,1,.17.61H42.15a4.79,4.79,0,0,0-.84,0,2.63,2.63,0,0,0,.95.92c.57.33,1.17.63,1.74,1s.83.48,1.23.73a4.42,4.42,0,0,1,.47.39,7,7,0,0,0,2.91-3.47,6.59,6.59,0,0,0,1.78.8,2.2,2.2,0,0,0-.09-1.2,3.56,3.56,0,0,1-.18-1.41A.25.25,0,0,0,50,7.69L48.52,6.54a4.7,4.7,0,0,0-1.35-.79,2.57,2.57,0,0,0-.93-.18V6.82L45.82,7a4.66,4.66,0,0,0-1.53.5ZM36.54,56.53a.8.8,0,0,0,0,.66.55.55,0,0,0,.68.41.65.65,0,0,0,.2,0c.37-.14.74-.28,1.11-.44a3.82,3.82,0,0,1,1-.35c.76-.09.89,0,1.3.67a1.89,1.89,0,0,1,.09.21,2.82,2.82,0,0,1,.17,1.15,2.92,2.92,0,0,1-.54,1.64l-.16.24.14,0a6.92,6.92,0,0,0,2.24-.49L45,59.36c.25-.09.51-.14.78-.21,0-.13,0-.26,0-.38a13.62,13.62,0,0,0-.68-2.8A6,6,0,0,0,44,54a2.43,2.43,0,0,0-2.5-.87,4.73,4.73,0,0,0-1.31.55.73.73,0,0,0-.36.52,4.4,4.4,0,0,0-.05.51c0,.27,0,.53,0,.8a.76.76,0,0,1-.53.76l-.25.09A9.14,9.14,0,0,1,36.54,56.53ZM2.69,38.47c0,.12,0,.22,0,.31a6.67,6.67,0,0,0,.46,2.34c.27.71.58,1.41.88,2.11l.33.75H4.4c0-.12.06-.23.1-.35.07-.27.17-.31.43-.23s.39.1.58.13A2.75,2.75,0,0,0,7,43.25c.52-.26,1-.57,1.54-.86l.69-.45-.28-1.12a1,1,0,0,1,.67,0c.2.11.38.24.6.37a2.26,2.26,0,0,0,0-.33q0-.36,0-.72a5.36,5.36,0,0,0-.61-2.1,3.08,3.08,0,0,0-.42-.6.88.88,0,0,0-.74-.3,1.4,1.4,0,0,0-.87.42,1.5,1.5,0,0,1,.26.15c.07.06.16.14.16.21s-.1.17-.21.2a3.43,3.43,0,0,1-.9,0s0,0,0-.06L6.77,38A.77.77,0,0,0,6,37.44a7.08,7.08,0,0,0-.9.16A4.75,4.75,0,0,1,4,37.75c-.24,0-.3,0-.31.3s0,.42,0,.63a.32.32,0,0,1-.16.31A1.39,1.39,0,0,0,2.69,38.47ZM31.57,27.09a.27.27,0,0,0,0-.09,3.11,3.11,0,0,0-1.23-1.31,4.28,4.28,0,0,0-2.1-.53,15.28,15.28,0,0,0-3,.27c-1.3.2-2.59.48-3.91.56a7.46,7.46,0,0,1-1.64-.07,3.17,3.17,0,0,1-2-1.07.29.29,0,0,1-.1-.28,2.7,2.7,0,0,0,0-.57.92.92,0,0,0-1.19-.91A2.69,2.69,0,0,0,15,23.9a1.7,1.7,0,0,0-.45.75c0,.1,0,.2.09.26A3.38,3.38,0,0,1,15.75,26c.14.18.27.37.42.54.28.34.29.33.72.33a4.34,4.34,0,0,1,.51,0,2.82,2.82,0,0,1,.65.08.61.61,0,0,1,.5.59,1.94,1.94,0,0,1-1,.09,2.67,2.67,0,0,1-1.3-.62l-1.11-.93a4.28,4.28,0,0,0-.38-.26,1.69,1.69,0,0,0,.19.52,2.89,2.89,0,0,0,3,1.68,7.39,7.39,0,0,0,2-.38c1-.31,1.92-.64,2.88-1a15.06,15.06,0,0,1,3.36-.85,4.37,4.37,0,0,1,3,.63.43.43,0,0,0,.31.1,1.82,1.82,0,0,1,1.07.24l.64.31A.64.64,0,0,0,31.57,27.09ZM40,37.2c-.18-.13-.36-.25-.52-.38a3.08,3.08,0,0,1-.88-1.48,9.25,9.25,0,0,1-.19-3.63c0-.12,0-.23,0-.35l-.06,0c-.11.24-.22.48-.32.72a4.25,4.25,0,0,0-.28.75,4,4,0,0,0,0,1.75c.16.72.34,1.43.51,2.15a4.11,4.11,0,0,1,0,1.94,21.48,21.48,0,0,1-.88,2.6,15.54,15.54,0,0,0-.71,2.32A4.16,4.16,0,0,0,36.9,46c.24.54.52,1.06.78,1.59a.29.29,0,0,0,.25.16c.24,0,.48.11.71.18.4.12.8.25,1.2.35a2,2,0,0,0,1,0c0-.07-.06-.12-.09-.16-.18-.29-.37-.56-.52-.85a10.13,10.13,0,0,1-1-4.25c0-.6,0-1.2,0-1.8a13.89,13.89,0,0,1,.48-3C39.79,37.85,39.89,37.52,40,37.2Zm1,.7a8.74,8.74,0,0,0,.76,2.6c.31.68.66,1.35,1,2,.21.46.42.92.6,1.4A4.52,4.52,0,0,1,43.62,46a3.49,3.49,0,0,1-.48,1.48c0,.09-.1.17-.16.29a2.59,2.59,0,0,0,1.55-1.54A3.86,3.86,0,0,0,44.62,44a8.5,8.5,0,0,0-2.54-4.48.48.48,0,0,1-.17-.39c0-.51,0-1,0-1.52,0-.09,0-.18,0-.31-.33,0-.64,0-.95,0a.4.4,0,0,0-.4.35,1.39,1.39,0,0,1-.1.26A5.46,5.46,0,0,0,40,40.07a5.94,5.94,0,0,0,.93,3.14,24.13,24.13,0,0,0,1.84,2.54l.29.34c0-.12,0-.2.06-.28s0-.12,0-.17a4.6,4.6,0,0,0-.64-2.46c-.32-.56-.65-1.1-1-1.66a4.9,4.9,0,0,1-.71-2.64A3,3,0,0,1,41,37.9ZM19,59.05c.39.19.74.37,1.1.53a5.31,5.31,0,0,0,2.31.53,2.25,2.25,0,0,0,1.72-.82.34.34,0,0,0,.09-.25,2.86,2.86,0,0,1,.19-1,2.56,2.56,0,0,0,.14-.87.43.43,0,0,0-.31-.47.56.56,0,0,1-.41-.43,3.53,3.53,0,0,0,1.22-1.9l-.86-.43L24,53.78c-.22-.09-.37,0-.37.23a3.94,3.94,0,0,0,.1.47,4.07,4.07,0,0,1,.14.58c0,.31,0,.37-.3.47l-1.28.4a6.65,6.65,0,0,0-.69-.94,9.1,9.1,0,0,0-1.23,2.5,3.4,3.4,0,0,1,.42.15,2.43,2.43,0,0,1,.46.22.48.48,0,0,1,.2.46A3.26,3.26,0,0,0,19,59.05ZM37.36,9.32a7.83,7.83,0,0,1,2.74.81l.21-.24a.35.35,0,0,0,0-.55L40,9a1.48,1.48,0,0,1-.4-.7l.54-.45a1.76,1.76,0,0,0,.69-1.14c0-.16,0-.33,0-.5a.5.5,0,0,0,.48-.41c.07-.21.17-.4.26-.63-.32-.27-.8-.47-.73-1.1.23,0,.47-.07.7-.08s.51,0,.77,0a.46.46,0,0,0,.42-.27l-.42-.17c-.53-.2-1.05-.43-1.59-.61a2.45,2.45,0,0,0-1.54-.06.61.61,0,0,0,.19.55,2.73,2.73,0,0,0,.25.23c.15.13.32.24.34.45-.47.29-.94.57-1.39.86a10,10,0,0,1-1.48.8L36.54,6a1.28,1.28,0,0,0,.89,1.26,7.1,7.1,0,0,0,.79.22c.34.08.68.13,1,.19l0,.06-.86.65a2.93,2.93,0,0,1-1,.32ZM13.63,8.05c-.53.3-1.07.58-1.58.9a2.26,2.26,0,0,0-1,1.43.27.27,0,0,0,.11.32,9.82,9.82,0,0,1,1.4,1.41,12,12,0,0,0,1.5,1.52,3.31,3.31,0,0,0,2.41.75c.18,0,.36,0,.44-.24s.12-.09.19-.14A6.21,6.21,0,0,0,16,11.45a3.42,3.42,0,0,0-1-.81c-.21-.12-.34-.08-.44.12s-.1.26-.27.24-.18-.19-.23-.32a.13.13,0,0,1,0-.06,6.59,6.59,0,0,1,0-1,4.17,4.17,0,0,0,0-1A.76.76,0,0,0,13.63,8.05Zm2.56,31.27h.06l.17.09a5.08,5.08,0,0,0,3.34.66,7.08,7.08,0,0,0,2.86-1.15,15.12,15.12,0,0,0,3-2.67,4.31,4.31,0,0,0,.32-.4s-.06,0-.07,0l-.17,0a4.35,4.35,0,0,0-1.14.57l-2.24,1.49a7.78,7.78,0,0,1-1.82.92,3,3,0,0,1-1.62.13,2.78,2.78,0,0,1-1.48-1c-.15-.17-.28-.35-.45-.56-.21.22-.4.42-.6.61a2.14,2.14,0,0,1-.5.41.61.61,0,0,0-.37.43c0,.13-.07.25-.1.38a1.67,1.67,0,0,0,.95,2,3.94,3.94,0,0,0,1.47.37,6.77,6.77,0,0,0,2.72-.33,3.53,3.53,0,0,0,1.21-.64,1.06,1.06,0,0,0,.4-.77L22,40a3.84,3.84,0,0,1-1.17.52,9.34,9.34,0,0,1-2,.36,5.09,5.09,0,0,1-1.35-.08,2,2,0,0,1-.81-.33A1.12,1.12,0,0,1,16.19,39.32Zm9.65,8.34a1.85,1.85,0,0,0,.87,0,4.45,4.45,0,0,0,2-.87.39.39,0,0,1,.39,0,3.72,3.72,0,0,0,.88.18,2.76,2.76,0,0,0,2-.7A5.37,5.37,0,0,0,33.82,43a.85.85,0,0,1,.14-.34,7.93,7.93,0,0,0,1-2,30.74,30.74,0,0,0,1-3.39.65.65,0,0,0,0-.2c-.31,0-.35.41-.61.41-.11.54-.2,1.06-.32,1.56a3.85,3.85,0,0,1-.85,1.8A2.71,2.71,0,0,0,33.63,42l-.06.16a8.64,8.64,0,0,1-2,3.24,3.75,3.75,0,0,1-1.71,1,2.59,2.59,0,0,1-.92.06.15.15,0,0,1,0-.07,6.79,6.79,0,0,0,1.45-1.79,10.85,10.85,0,0,1,1.44-2,.37.37,0,0,0,.09-.2,4.59,4.59,0,0,1,.58-1.69c.29-.52.57-1,.84-1.56a2.88,2.88,0,0,0,.34-1.58.76.76,0,0,0-.13-.45,1.21,1.21,0,0,0-.33.55c-.11.34-.21.69-.33,1a.81.81,0,0,1-.35.48.7.7,0,0,0-.3.46,11.13,11.13,0,0,1-1.46,3.24,14.16,14.16,0,0,1-2.06,2.44,27.1,27.1,0,0,1-2.25,1.89Zm-10.2,7.46.34.18a2.43,2.43,0,0,1,.32.18.41.41,0,0,1,.15.44c0,.14-.2.16-.33.16-.29,0-.59,0-.88,0l-.28,0-.11.52,1.25.8c.3.19.61.39.92.56a2.5,2.5,0,0,0,1,.3.71.71,0,0,0-.25-.78l-.24-.21a.64.64,0,0,1-.19-.66l.2,0a2.46,2.46,0,0,0,1.06-.46,3.52,3.52,0,0,0,.93-1.1c.15-.25.29-.51.44-.77-.39-.37-.93-.61-.8-1.28.3,0,.59,0,.87,0a1.32,1.32,0,0,0,.75-.22c.15-.11.16-.18,0-.33a3.07,3.07,0,0,0-.25-.26,5.17,5.17,0,0,0-1.52-1c-.45-.2-.92-.37-1.39-.55a.91.91,0,0,0,.11.7,7,7,0,0,0,.43.63,1.67,1.67,0,0,1,.39.91A3.69,3.69,0,0,0,15.64,55.12ZM62.26,35.54a7.59,7.59,0,0,1-.81-.33c-.4-.18-.78-.39-1.17-.59a4.29,4.29,0,0,0-2.66-.4c-.16,0-.25.07-.28.25a1.05,1.05,0,0,1-.19.4c-.19.25-.36.26-.61.08a1.61,1.61,0,0,1-.5-.68c-.07-.14-.13-.28-.19-.42h-.56a4.74,4.74,0,0,0,0,2.48,7.52,7.52,0,0,0,2.37-.54,3.19,3.19,0,0,1,.95,2.1.93.93,0,0,0,.05.21c.14,0,.27,0,.33.13a1,1,0,0,1,.12.36,5,5,0,0,0,.55,0,.87.87,0,0,0,.87-.76c.08-.42.1-.85.14-1.27,0-.09,0-.18.06-.34a5.46,5.46,0,0,0,.84,1.36A3.05,3.05,0,0,0,62.26,35.54Zm-8.48-15a2.69,2.69,0,0,0,2.17,0,5.36,5.36,0,0,1,.85-.23.49.49,0,0,0,.46-.46c0-.11,0-.21.05-.31s.07-.47.12-.7a.52.52,0,0,1,.24-.4,5,5,0,0,0,1.38.66c0-.12,0-.22,0-.31a2,2,0,0,0-.51-1.33c-.32-.41-.67-.81-1-1.21l-.08,0a.8.8,0,0,0-.3.48,4.2,4.2,0,0,0-.07.62,5.27,5.27,0,0,0,0,.57c-.25,0-.47.09-.69.11a3.28,3.28,0,0,1-1.2-.19c-.43-.12-.86-.25-1.29-.35a1.24,1.24,0,0,0-.94.12.36.36,0,0,0-.2.34A2,2,0,0,0,53.18,19c.15.22.31.42.45.63a1.35,1.35,0,0,1,.24.66,3,3,0,0,0-2.07-.69c.18.41.35.83.54,1.24a4.94,4.94,0,0,0,.36.68.9.9,0,0,0,.27.28.4.4,0,0,0,.63-.28c0-.16,0-.33,0-.49A.67.67,0,0,1,53.78,20.52Zm-3,35.31-.11,0h-.09A1.78,1.78,0,0,1,49.41,55a4.91,4.91,0,0,1-.28-.5c-.24-.5-.45-1-.69-1.51a1.86,1.86,0,0,0-1-1L47,51.87a3.81,3.81,0,0,0,1.62-2.08.63.63,0,0,0-.65,0,2,2,0,0,0-.58.62c-.19.27-.35.29-.61.07s-.33-.21-.55,0a2.71,2.71,0,0,1-.9.68,5.42,5.42,0,0,0,.51,2.26c.47,1,1,1.95,1.5,2.93a.22.22,0,0,0,.2.13l1.81.11a1.61,1.61,0,0,0,.83-.19A1.35,1.35,0,0,0,50.79,55.83Zm2-1.85c.09-.09.18-.2.27-.28.47-.42.94-.84,1.42-1.24a6,6,0,0,0,1.2-1.26,2,2,0,0,0,.33-1c-.24-.06-.37.08-.5.22a.55.55,0,0,1-.71.15c0-.22,0-.43-.06-.63A1.92,1.92,0,0,0,53.5,48.4a8.31,8.31,0,0,0-1.75-.5,6,6,0,0,1-2-.71s0,0-.05,0a1.36,1.36,0,0,1-.43.55L49,48a1,1,0,0,0-.31,1c.18,0,.24-.08.3-.22s.12-.24.29-.22a4,4,0,0,1,1.51.45,4.23,4.23,0,0,1,2,3.34A6.21,6.21,0,0,1,52.74,54ZM28.82,9c.05-.12.08-.24.13-.35A1,1,0,0,0,29,7.93c-.05-.15,0-.23.14-.3a1.37,1.37,0,0,1,1.26,0,.68.68,0,0,1,.41.69v.3a6.93,6.93,0,0,1,.79,0,.51.51,0,0,0,.57-.33,1.72,1.72,0,0,0,.17-.48,5.23,5.23,0,0,0-.06-1.53,3.93,3.93,0,0,0-1.4-.08.81.81,0,0,0-.61.37.23.23,0,0,1-.23.13h-.31a1.14,1.14,0,0,1-1.2-.9,3.43,3.43,0,0,1-.15-1c0-.82,0-1.65,0-2.47v-.3A7.24,7.24,0,0,0,25,2.6a1,1,0,0,0,.57.21l.9.15a.6.6,0,0,1,.37.29.18.18,0,0,1,0,.25,1.33,1.33,0,0,0-.31.64,1.28,1.28,0,0,1,.4.84c0,.32.06.64.11,1a8.36,8.36,0,0,0,.17.87c.08.26.15.27.43.26a3,3,0,0,1,.67,0c.3,0,.34.21.17.45s-.32.4-.47.61a1.41,1.41,0,0,0-.23.88Zm3.36,21.72a4.14,4.14,0,0,0,.06.45,5,5,0,0,1,.13,1.28.57.57,0,0,1-.18.37,9.12,9.12,0,0,1-1.77,1.39,14.58,14.58,0,0,1-2.83,1.32l-.65.24a4.82,4.82,0,0,0,1.81.62,4.54,4.54,0,0,0,3-.76A7,7,0,0,0,34,33.36l.14-.22.15.06a.32.32,0,0,0,.45-.31,2.33,2.33,0,0,1,.08-.59.8.8,0,0,1,.56-.73,1.69,1.69,0,0,1,.28-1.18,1.92,1.92,0,0,0,.14-.32,1.17,1.17,0,0,0-1.24.68ZM20.25,11.06c-.31-.12-.38-.24-.34-.52s0-.28,0-.42a.45.45,0,0,0-.13-.36,4,4,0,0,1-.49-.67c-.28-.53-.54-1.09-.8-1.64a4.74,4.74,0,0,0-.83-1.29,1.44,1.44,0,0,0-2,0c-.41.39-.79.82-1.18,1.22a1,1,0,0,0,.59.5.29.29,0,0,0,.36,0,1,1,0,0,1,.62-.28.5.5,0,0,1,.24,0c.13.07.25.17.38.25a.23.23,0,0,1,.14.22v.6a.87.87,0,0,0-.65.67l1.17,1.32a4.27,4.27,0,0,0,1.15,1c.29.16.38.13.53-.16.05-.11.11-.21.25-.19a.27.27,0,0,1,.22.22.67.67,0,0,0,.08.25.35.35,0,0,0,.21.12c.1,0,.1-.09.12-.16a1.19,1.19,0,0,1,.11-.26Zm9.27,50.75a.81.81,0,0,0-.39-.6c-.2-.14-.42-.24-.61-.37s-.33-.25-.51-.38A1.35,1.35,0,0,1,29.26,60a1.46,1.46,0,0,0,.27-.86c0-.73,0-1.46,0-2.21l-.51-.2a.32.32,0,0,1-.2-.32.27.27,0,0,1,.19-.27,5.76,5.76,0,0,0,.6-.33.58.58,0,0,0,.31-.43,1.31,1.31,0,0,0-1.07-.17c-.16,0-.32.11-.48.16l-1.27.43-.18,0a.39.39,0,0,0,.31.38c.16.06.33.1.49.15a.37.37,0,0,1,.3.34c.05.57-.1,1.08-.89,1.11h-.31l-.59,0c-.08.27-.16.53-.22.78a6.52,6.52,0,0,0-.22,1,1.28,1.28,0,0,0,.05.77h.43c.26,0,.52,0,.78,0a.35.35,0,0,1,.2.6,1.45,1.45,0,0,1-.26.17c-.1.06-.21.09-.31.15a1.59,1.59,0,0,0-.2.19A9.3,9.3,0,0,0,29.52,61.81Zm6.3-.82.79-1.19a.42.42,0,0,1,.4-.21h2.25a2.31,2.31,0,0,0,0-1.25,2.07,2.07,0,0,0-1.63.28l-.37.22a2.21,2.21,0,0,1-.93.33c-.56,0-.55.07-.8-.5A1.8,1.8,0,0,1,35.68,57a7.83,7.83,0,0,1,1.12-1.44c.17-.18.34-.38.54-.61a4.68,4.68,0,0,0-3.16.34,2.45,2.45,0,0,0-.31.23c.12.09.22.15.3.22a5,5,0,0,1,.42.38.3.3,0,0,1,.07.34,5.2,5.2,0,0,0-.34,1.7c-.06.67-.11,1.33-.16,2,0,.16,0,.21.18.24s.24,0,.36,0,.24,0,.31.23a.54.54,0,0,1-.07.52c-.09.14-.19.28-.28.43a.87.87,0,0,0-.08.23,10.6,10.6,0,0,0,4-.56,4.5,4.5,0,0,0-2.62.12ZM13.25,18a1.06,1.06,0,0,0,.3-.67,2.59,2.59,0,0,0-.24-1.4,6.57,6.57,0,0,0-1.89-2.51,4.07,4.07,0,0,0-1.36-.8,1.84,1.84,0,0,0-.87-.07A1.66,1.66,0,0,0,8,14.06H9.59c.36,0,.39,0,.47.38,0,0,0,.07,0,.11a3.45,3.45,0,0,1,0,1.11c-.05.52-.09,1-.14,1.56a.4.4,0,0,0,.17.37,1.09,1.09,0,0,0,1.58,0c.23-.21.43-.43.64-.66s.43-.48.65-.73l.06,0c0,.16,0,.32,0,.48s0,.59,0,.88A.32.32,0,0,0,13.25,18ZM52,9.6l0,.05.12.19A3.57,3.57,0,0,1,52.42,13a5,5,0,0,1-2.26,2.67c-.27.16-.55.28-.83.42v.54c.51.24.66.81,1,1.18l.05-.06,0-.08a3.37,3.37,0,0,1,1.47-2.35,6.19,6.19,0,0,1,2.74-1.06.88.88,0,0,1,.39,0c.24.07.47.19.72.26a2.11,2.11,0,0,0,.55.09c.16,0,.24-.13.31-.26s0-.22-.09-.31c-.38-.42-.76-.85-1.13-1.28A24.31,24.31,0,0,0,52.53,10C52.36,9.86,52.17,9.73,52,9.6ZM6.14,35.76l0-.13A4.66,4.66,0,0,1,6,35c0-.3.19-.38.43-.22s.51.37.77.54a2.54,2.54,0,0,0,1.38.45L9,34.82c-.48-.15-.34-.6-.39-1l-.21,0a1.38,1.38,0,0,1-.2,0,2.33,2.33,0,0,1-1.7-.8.35.35,0,0,1-.09-.17,1.89,1.89,0,0,1,.29-1.44l.08-.13-.64-.39a1.21,1.21,0,0,0-1-.17,1.45,1.45,0,0,0,.14,1.34c.13.21.3.39.45.59l.53.69a1.81,1.81,0,0,1-1.06.74,3.78,3.78,0,0,1-2.76-.35,6.47,6.47,0,0,1-.8-.56,16.64,16.64,0,0,0,0,2.54A2.06,2.06,0,0,1,3,35.58a7.39,7.39,0,0,1,.82.14,6.62,6.62,0,0,0,1.6.2A1.64,1.64,0,0,0,6.14,35.76Zm47.78,4.75c.51.06,1,.09,1.43.16a5.88,5.88,0,0,1,2.36.85A3,3,0,0,1,59,43.08a3.38,3.38,0,0,1,.15,1.58,3.05,3.05,0,0,0,0,.36,13.16,13.16,0,0,0,2.1-4L61,41h-.25a7.12,7.12,0,0,1-3.41-.88,5.18,5.18,0,0,1-2.14-2.16c-.1-.2-.19-.41-.32-.66C54.57,38.38,54.18,39.42,53.92,40.51ZM6.3,19.68a1.28,1.28,0,0,0,1.31.51c.28,0,.56-.06.84-.09a3.17,3.17,0,0,1,1.19,0,.52.52,0,0,1,.39.3,1,1,0,0,0,.58.51,1.47,1.47,0,0,0,.8.09,1.69,1.69,0,0,1,.12-.27,2.29,2.29,0,0,1,.21-.23.54.54,0,0,0,.09-.71,6.1,6.1,0,0,1-2.08-.22A3.77,3.77,0,0,1,7.65,18a5.17,5.17,0,0,1-.77-2.54,3,3,0,0,0-.06-.33c-.46.7-.89,1.35-1.29,2A9,9,0,0,0,5,18.21a4,4,0,0,0-.42,1.15l1.36,1.28A.79.79,0,0,0,6,20.45c0-.15,0-.3,0-.46S6.08,19.71,6.3,19.68ZM35.94,2.75c.47,0,.91,0,1.37,0A.61.61,0,0,0,37,2.34a3.5,3.5,0,0,0-.62-.29,5,5,0,0,0-1.88-.12,4.67,4.67,0,0,0-1.28.29.27.27,0,0,0-.2.29c0,.9,0,1.8,0,2.7a.26.26,0,0,0,.15.27A2.2,2.2,0,0,1,34.26,7.4c0,.35,0,.7-.06,1,.27.12.56.25.85.4A1.85,1.85,0,0,0,36.18,9a.66.66,0,0,0-.29-.93c-.19-.12-.41-.21-.61-.32a.81.81,0,0,1-.46-.64,2.73,2.73,0,0,1,0-.57c.09-.42.2-.83.33-1.24A14,14,0,0,0,35.94,2.75ZM19.28,4.45c.65,1.77,1.69,3.36,2.33,5.13a2.08,2.08,0,0,1,1.09.28,3.89,3.89,0,0,0,.53.21A.64.64,0,0,0,23.8,10c-.06-.1-.11-.19-.16-.26a13.88,13.88,0,0,1-1.13-2.12,5.45,5.45,0,0,1-.46-2.22,2.33,2.33,0,0,1,.7-1.67l.45-.43-.3,0a3.33,3.33,0,0,0-1.49.28ZM16.42,49.21c-.42-.36-.78-.69-1.17-1a4.51,4.51,0,0,0-.49-.28.43.43,0,0,0-.45,0c-.26.15-.54.28-.82.41-.78.37-1.58.74-2.36,1.13-.5.25-.5.27-.5.82,0,.17,0,.35,0,.52s0,.14,0,.24H8.69a6.17,6.17,0,0,0,1.88,1.77l1.2-1a2.22,2.22,0,0,0,.47-.5,3.13,3.13,0,0,1,1.21-1.1,7.6,7.6,0,0,1,2-.8Zm19.93-7.66h0a.54.54,0,0,0-.1.16,8.25,8.25,0,0,0-.35,1.17c-.16.8-.28,1.61-.42,2.42A6.09,6.09,0,0,1,35,46.8c0,.08,0,.2-.18.24,0-.42,0-.83,0-1.24A13.71,13.71,0,0,1,35,44.38a22,22,0,0,1,.85-3.08,23.54,23.54,0,0,0,1-3.5,2,2,0,0,0,.07-.73h-.35c0,.08,0,.15-.05.21-.1.44-.19.89-.31,1.33a26.89,26.89,0,0,1-1.09,2.92,15,15,0,0,0-.94,2.91c-.12.63-.19,1.28-.26,1.92a5.87,5.87,0,0,0,0,.72l.83.49a1.51,1.51,0,0,0,1.11.23c0-.16,0-.31,0-.46,0-.41,0-.82.08-1.23.14-1,.34-2,.46-3A12.65,12.65,0,0,0,36.35,41.55ZM47,36.23a1.39,1.39,0,0,0-.09-.79,1.89,1.89,0,0,1-.16-1.2,3.48,3.48,0,0,1-1.2-1c-.27-.31-.55-.63-.83-.93a1.93,1.93,0,0,0-.28-.22c-.22.17,0,.46-.2.61-.38-.13-.43-.32-.16-.59l.18-.19a.32.32,0,0,0,.08-.36c-.29-.08-.31-.07-.43.21s-.1.25-.37.16a.21.21,0,0,1,0-.07c-.05-.47-.08-.94-.14-1.4s-.14-.84-.22-1.26a3,3,0,0,0-.19-.46l-.08.25c0,.18-.08.36-.11.53a5.32,5.32,0,0,0,.64,3.76,14.78,14.78,0,0,0,1.33,1.81,10.39,10.39,0,0,1,1.34,2s0,0,.07.08l0,0a.45.45,0,0,1,0-.11,3,3,0,0,0-.44-1.69c-.26-.48-.54-.94-.8-1.42a3.08,3.08,0,0,1-.35-.76q.54.59,1.05,1.2a2.53,2.53,0,0,1,.59,1.32q0,.28.06.6ZM27.77,45.55c.29-.27.55-.49.79-.74a17.41,17.41,0,0,0,2.07-2.62,14,14,0,0,0,1.89-4.27c.09-.37.14-.74.21-1.11l-.07,0a3.53,3.53,0,0,0-.21.32c-.31.56-.61,1.13-.91,1.69a6.39,6.39,0,0,1-1.47,2A.41.41,0,0,0,30,41a2.23,2.23,0,0,1-.33.9l-.34.5a2,2,0,0,0-.42,1.07.29.29,0,0,1-.18.27,1.76,1.76,0,0,0-.79.91A1.5,1.5,0,0,0,27.77,45.55ZM6.37,47.69a3.75,3.75,0,0,0,.44-.53c.15-.26.08-.38-.2-.49s-.21-.09-.14-.33c.46-.06.91-.09,1.36-.17a4.17,4.17,0,0,0,2.54-1.34,2.48,2.48,0,0,0,.52-.78L10.74,44A2.53,2.53,0,0,0,9,44.21c-.25.12-.5.24-.74.38a4.42,4.42,0,0,1-1.43.57c-.16.83-.34,1-1.26,1.15a.82.82,0,0,0,.17.82C5.94,47.32,6.14,47.48,6.37,47.69Zm.63,1a1.32,1.32,0,0,0,.49,1l.76.63a1.51,1.51,0,0,0,.11-.22,3.84,3.84,0,0,1,1.37-1.54,7.92,7.92,0,0,1,1.68-.82c.5-.18.5-.18.54-.7a1.36,1.36,0,0,0-.11-.69l-.21,0-.14,0a4.68,4.68,0,0,0-3.1,2.11.39.39,0,0,1-.39.21C7.68,48.67,7.36,48.68,7,48.68ZM30.82,30.75l-.06.07a9.81,9.81,0,0,1-1.7,1.88c-.61.54-1.25,1.06-1.87,1.58l-.24.23a1.44,1.44,0,0,0,1.16-.16,4.93,4.93,0,0,0,.74-.63c.24-.24.44-.52.67-.77a2.53,2.53,0,0,1,.83-.65.33.33,0,0,1,0,.1,2,2,0,0,1-.69,1l-.94.79a.49.49,0,0,0-.2.3,3.09,3.09,0,0,0,2.91-3.72Zm0,14.39a.82.82,0,0,0,.61-.28c.15-.19.3-.38.44-.59a1.35,1.35,0,0,1,.84-.65c0-.1.05-.2.08-.3.16-.47.29-1,.48-1.41s.56-1.21.84-1.81a9.25,9.25,0,0,0,.79-2.47,2.85,2.85,0,0,0,0-.29.18.18,0,0,0-.24.15c0,.25-.17.37-.44.29-.26.72-.5,1.42-.77,2.11a8,8,0,0,1-1.89,3.22.28.28,0,0,0-.09.26,1.2,1.2,0,0,1-.3.92l-.25.35A.7.7,0,0,0,30.84,45.14Zm12-24.88a11.69,11.69,0,0,0,.91,2.19,1.55,1.55,0,0,1,.38-.25,2.09,2.09,0,0,1,.56,0l1,0a.26.26,0,0,0,.19-.1c.19-.27.37-.54.55-.83a1.32,1.32,0,0,0,.22-1c-.29,0-.29,0-.38-.28,0,0,0-.08,0-.11s-.18-.11-.27,0a2.35,2.35,0,0,1-.3.33c-.09.09-.22.15-.26.26s-.24.19-.4.2a3.82,3.82,0,0,1-1.67-.27Zm-11.92,35c.1.26.22.5.29.75a5.13,5.13,0,0,1,0,2.24c-.08.49-.22,1-.34,1.45-.06.22-.05.23.16.31s.17.07.21.13a1,1,0,0,1,.05.27c.4,0,.68-.33,1-.42V56.8a.56.56,0,0,1-.53-.3c-.07-.1-.16-.18-.25-.29l.25-.19.57-.32a.8.8,0,0,0,.36-.44ZM47.67,24a.47.47,0,0,0-.72.24l-.2.54a.41.41,0,0,1-.36.28,1.63,1.63,0,0,1-1.63-.57,10,10,0,0,1-.58-.95c0-.08-.09-.17-.17-.31a2.51,2.51,0,0,0-.1,1.23.44.44,0,0,1,.39.49v.34c0,.25,0,.51,0,.77a1.09,1.09,0,0,0,0,.25c.08.22.19.27.42.19l.68-.2c.39-.1.79-.18,1.18-.3a1.33,1.33,0,0,0,1.06-1.17A5.78,5.78,0,0,0,47.67,24Zm-4,6.68h.06a.75.75,0,0,0,.07-.12c0-.22,0-.43,0-.65s0-.53,0-.8a.28.28,0,0,1,.24-.28,1.18,1.18,0,0,1,.59,0c0,.05,0,.09,0,.13a1.42,1.42,0,0,0,.44,1,10.93,10.93,0,0,0,1.39.94,1.25,1.25,0,0,0-.16-.35l-1.57-2.33a9.51,9.51,0,0,1-1.19-2.49,2.79,2.79,0,0,1-.19-1.34,2.85,2.85,0,0,0,0-.29c0-.2-.06-.27-.27-.34a1,1,0,0,0,0,.17c0,.6.07,1.19.1,1.79s0,1,.06,1.52.06,1.25.12,1.88S43.64,30.13,43.72,30.64Zm9.09,15.23.57.34a6.89,6.89,0,0,1,1.67,1.22.37.37,0,0,0,.3.12h1.12l.2,0a2.82,2.82,0,0,0-1.31-1.86,4.11,4.11,0,0,0-2.5-.46s0,0,0,0Zm-32.38-.38,0,0,.13,0a5.73,5.73,0,0,0,1.52-.77,9.94,9.94,0,0,0,3.43-4.26c.07-.14.12-.29.18-.44a.4.4,0,0,0-.22.14c-.66.66-1.3,1.34-2,2-.82.79-1.64,1.58-2.39,2.45C20.89,44.89,20.67,45.19,20.43,45.49Zm2.41-12.63a1.51,1.51,0,0,0-1.32,1.08.25.25,0,0,0,.07.28,4.55,4.55,0,0,0,1.33,1,4.25,4.25,0,0,0,2.57.26c-.11-.26.21-.41.12-.65A2.58,2.58,0,0,1,22.84,32.86ZM58.21,44.72a5.46,5.46,0,0,0,0-.58.31.31,0,0,0-.11-.19,9.93,9.93,0,0,0-1.54-1.12,3,3,0,0,0-1.37-.45,1.38,1.38,0,0,0-.84.17,1.36,1.36,0,0,0,.66,1c.17.1.35.19.53.28a2.84,2.84,0,0,1,1.13.84s.11.07.17.08A5.83,5.83,0,0,0,58.21,44.72Zm4.33-12v-.85c0-.08,0-.15,0-.22a1.3,1.3,0,0,0-.85,0A5.47,5.47,0,0,0,61,32a1.83,1.83,0,0,0-.88-.32,18,18,0,0,0-2.65,0v.53A14,14,0,0,0,62.54,32.69ZM30.37,22.23l-.27.05a1.61,1.61,0,0,1-1.13-.2A2.2,2.2,0,0,0,28,21.8v.8a.64.64,0,0,1,.62.25.52.52,0,0,0,.6.16c0-.14,0-.26,0-.38a.27.27,0,0,1,.07-.14c.05,0,.12.05.14.1a1.41,1.41,0,0,1,.07,1,.54.54,0,0,1-.1.16c-.66-.68-1.09-.85-1.54-.61.1.08.18.17.28.24s.36.24.52.38.16.22,0,.44c-.24,0-.18-.32-.33-.41h-.58a1.15,1.15,0,0,0,.45.81,2.9,2.9,0,0,0,1.3.55.36.36,0,0,0-.07-.47c-.25-.29-.25-.31,0-.56l.14-.11.74-.43ZM16,51.07a1.16,1.16,0,0,0-.8,0,2.28,2.28,0,0,0-1,.73,8.26,8.26,0,0,0-1.07,1.62c0,.08-.07.17-.11.26A2.91,2.91,0,0,0,16,51.07Zm29-1.72a.29.29,0,0,0-.18-.31.21.21,0,0,1-.1-.32.55.55,0,0,1,.17,0,2.18,2.18,0,0,0,1.21-.58c.07-.06.17-.11.1-.26l-.41-.09,0-.16c.33-.09.6.28.94.1v-.09c0-.28,0-.28.27-.39a1,1,0,0,0,.24-.14.15.15,0,0,0,0-.25c-.37-.25-.75-.49-1.13-.72a.37.37,0,0,0-.36-.05,2.34,2.34,0,0,0,1,.86l-.23.18a4.77,4.77,0,0,0-.51-.33,1.89,1.89,0,0,1-.8-.46.29.29,0,0,0-.11.35c.05.16.09.32.14.5h.16l.2,0c.11,0,.16.08.12.2a.21.21,0,0,1-.35.13c-.15-.1-.29-.23-.44-.32s-.24,0-.25.13.09.23.18.31a3.68,3.68,0,0,1,.38.31s.06.16,0,.19-.15.11-.21.08a1,1,0,0,1-.27-.19,2,2,0,0,0-.3-.21.2.2,0,0,0-.27.08.22.22,0,0,0,.06.31,1.82,1.82,0,0,0,.23.15.21.21,0,0,1,.09.31h-.47c-.21,0-.27.11-.29.32Zm3.49-35.44a1.4,1.4,0,0,0,1.65-.45A3.08,3.08,0,0,0,50.75,12a1.78,1.78,0,0,0,0-.69A3.18,3.18,0,0,0,48.51,13.91Zm-.92,17.18.07-.05a2.43,2.43,0,0,0-.09-1.53,3.08,3.08,0,0,0-1-1.13,9.08,9.08,0,0,1-1.77-1.51s0,0-.05,0a3.59,3.59,0,0,0,.46,1.23,7.62,7.62,0,0,0,1.17,1.43A7.77,7.77,0,0,1,47.55,31S47.57,31.05,47.59,31.09ZM25.35,7.77A5.35,5.35,0,0,0,24.9,6c-.18-.41-.36-.82-.53-1.23s-.2-.39-.57-.32l-.19,0a.22.22,0,0,0-.18.28,6.36,6.36,0,0,0,.25.85A7.77,7.77,0,0,0,24,6.3a2.22,2.22,0,0,1,.25,1.1v.37Zm24,43.16s0,.08,0,.11a7.84,7.84,0,0,0,.68,1.54,2.3,2.3,0,0,0,.73.82,1.29,1.29,0,0,0,.74.28,2.81,2.81,0,0,0,.13-.45.73.73,0,0,0-.07-.61c-.28-.37-.56-.74-.85-1.1A1.76,1.76,0,0,0,50,51,.88.88,0,0,0,49.36,50.93ZM42.93,35.54a1,1,0,0,0,.41,1,3.39,3.39,0,0,0,1.12.61l.63.2v-.63c-.36-.06-.36-.06-.43-.43a4.53,4.53,0,0,1-.5-.06c-.23,0-.27-.11-.29-.39l.41,0c0-.09-.05-.16-.08-.23a1,1,0,0,0-.43-.45,1.29,1.29,0,0,1-.6-.79l0,0h-.74a.61.61,0,0,0,.26.71l.52.34a.55.55,0,0,1,.28.46C43.23,35.76,43.21,35.4,42.93,35.54ZM35.37,37a27.9,27.9,0,0,1-.93-3.44l-.54.19A2.56,2.56,0,0,0,34,34c.17.63.34,1.25.5,1.88a1.63,1.63,0,0,1,.08.7.51.51,0,0,1-.38-.26c-.1-.16-.18-.34-.28-.5s-.14-.3-.37-.3a3.13,3.13,0,0,0,0,1.06,1.39,1.39,0,0,1,.94.31A.92.92,0,0,0,35.37,37Zm12-3.21v-.39c0-.5,0-.5-.47-.72a1.31,1.31,0,0,1-.51-.32l.43-.2a18.16,18.16,0,0,0-1.95-1.65.74.74,0,0,0-.11.58c.39.08.39.08.46.45a1.14,1.14,0,0,1,1,.71c-.28.15-.48-.23-.77-.07C45.69,33.16,46.49,33.46,47.34,33.8ZM40.86,46.72a.6.6,0,0,0,.37.43c.15.09.32.16.48.25a.7.7,0,0,1,.36.41c-.25.09-.26.09-.41-.13s-.14-.16-.26-.11-.09.18-.07.28a1.1,1.1,0,0,0,.86.59c-.19-.45.17-.84.13-1.27-.16,0-.31,0-.46-.06s-.21-.1-.18-.22.11-.13.18-.15.3-.05.45-.08a.61.61,0,0,0-.28-.58,4.82,4.82,0,0,0-.5-.27,1.38,1.38,0,0,1-.73-.62,3.25,3.25,0,0,0-.54,0,.36.36,0,0,0-.23.17s0,.15.09.21a.77.77,0,0,0,.19.17l.67.37a1.8,1.8,0,0,1,.68.48C41.43,46.88,41.14,46.64,40.86,46.72ZM31.06,5.09a.71.71,0,0,0,.07-.16,5,5,0,0,0,.1-.76c0-.66,0-1.31,0-2a.56.56,0,0,0,0-.1l-.6-.21c0,.05-.06.08-.06.11a9.39,9.39,0,0,0-.14,2.05,1.49,1.49,0,0,0,.2.74A.59.59,0,0,0,31.06,5.09Zm11.46,18c-.46.76-.11,4,.54,4.92A24.47,24.47,0,0,0,42.52,23.08Zm-6,18,.07,0a3.47,3.47,0,0,0,.3-.4,11.2,11.2,0,0,0,.43-1.09c.16-.5.28-1,.43-1.54.05-.18.13-.36.21-.59a1.55,1.55,0,0,0-.51.42,3.57,3.57,0,0,0-.7,1.42A8,8,0,0,0,36.53,41.12Zm10.15-18.2c-.19.2-.39.11-.59,0a.83.83,0,0,0-.51-.15l0,.2c0,.24-.11.31-.35.28l-.23,0a1.92,1.92,0,0,0-.24,0,1,1,0,0,0,.92.93.56.56,0,0,0,.49-.16s.09-.12.07-.17-.09-.07-.15-.08-.1,0-.14,0-.12-.07-.13-.12a.26.26,0,0,1,.09-.16c.1-.05.2-.07.28,0a1.67,1.67,0,0,0,.12.16.29.29,0,0,0,.42,0A.59.59,0,0,0,46.68,22.92ZM21.24,34.48h-.06c-.05.22-.11.44-.14.66a.37.37,0,0,0,.11.28c.32.3.64.59,1,.86a1.68,1.68,0,0,0,.55.28.78.78,0,0,0,.82-.23A4.93,4.93,0,0,1,21.24,34.48ZM53.79,16.6c.4.32.78.65,1.33.53,0-.38.05-.4.46-.45a1.28,1.28,0,0,0-.26-1,1.49,1.49,0,0,1-.87.48l-.29.11A.59.59,0,0,0,53.79,16.6ZM26.87,9.26A.72.72,0,0,0,26,8.6,1.92,1.92,0,0,0,25,9a.87.87,0,0,0-.33.55.62.62,0,0,0,.54.09c.15-.05.28-.12.42-.18a5.9,5.9,0,0,1,.67-.23A3.36,3.36,0,0,1,26.87,9.26Zm5.72,17.23c0-.09.07-.12.07-.14a3,3,0,0,0-.51-2.63.35.35,0,0,0-.12,0A4.82,4.82,0,0,0,32.59,26.49Zm-7.37-2.18.4-1.17a2.92,2.92,0,0,1-1.24.12c-.18,0-.36,0-.53,0a.51.51,0,0,0-.43.47l.27,0c.15,0,.31-.06.47-.07s.34.08.35.34c0,.06,0,.11,0,.15a3.35,3.35,0,0,1,.37.09C25,24.27,25.09,24.36,25.22,24.31Zm5.94.28-.3,0a1.29,1.29,0,0,0-.34,0,.19.19,0,0,0-.12.32,3.07,3.07,0,0,0,.56.38.56.56,0,0,0,.52,0,1.48,1.48,0,0,1-.15-.53,1.54,1.54,0,0,1,.3-.47l-.16-.36c-.17-.33-.29-.39-.66-.3l-.14.42C30.83,24.22,31.25,24.14,31.16,24.59ZM37,14.77h.1a2.66,2.66,0,0,0,1.86-1C38.27,13.4,37.23,14.05,37,14.77Zm20.87,32c0,.36-.09.41-.43.41h-.3c0,.31,0,.6,0,.9,0,.13,0,.28.22.31a1.32,1.32,0,0,1,.74-.76l.12-.08a.25.25,0,0,0,.1-.36l-.15-.42ZM12.18,54.57a2.78,2.78,0,0,0,1.63,1.08.67.67,0,0,0-.12-.62c-.12-.14-.22-.3-.34-.46ZM50.86,46.3a5.11,5.11,0,0,0,.72-.08A.49.49,0,0,0,52,45.8a.9.9,0,0,0-.07-.62H51.3c0,.42,0,.39-.44.45ZM30,28.06h.29l.85,0c.23,0,.3-.07.33-.25l-.71-.48a.83.83,0,0,0-.76-.1Zm-7.7,22.73a.56.56,0,0,0-.13-.07,2.27,2.27,0,0,1-1-.55l-.33-.28a1.64,1.64,0,0,0-1.12-.38l.73.58c.22.17.42.36.64.52a2,2,0,0,0,.52.29A.62.62,0,0,0,22.28,50.79Zm9,11a3.59,3.59,0,0,1,1.59.25l.17-.5-1.13-.34a.41.41,0,0,0-.44.13A.81.81,0,0,0,31.26,61.83ZM43.91,5.1h.88a.73.73,0,0,0,.2,0c.14-.06.16-.17,0-.29a.44.44,0,0,0-.16-.1c-.17-.07-.31-.16-.33-.36h-.92c-.06.17,0,.29.08.36A.41.41,0,0,1,43.91,5.1Zm-34.43,11c-.35,0-.7,0-1.07,0,.07.61.61.75.94,1.07A.88.88,0,0,0,9.48,16.06ZM23,53.44a2.44,2.44,0,0,0-.83-.37.5.5,0,0,0-.63.5A1,1,0,0,0,23,53.44ZM55.6,31.19a6.13,6.13,0,0,0,0,1.48c.37,0,.57-.1.64-.32A1,1,0,0,0,55.6,31.19Zm4.53-9.58a.89.89,0,0,0-.65-1.19.1.1,0,0,0,0,0,1.59,1.59,0,0,0-.08.84s0,.08.09.09A1.69,1.69,0,0,0,60.13,21.61ZM43.49,19.56a.63.63,0,0,0,0,.16,1,1,0,0,0,1,.52c.17,0,.32-.17.32-.28a.38.38,0,0,0-.26-.32A2,2,0,0,0,43.49,19.56Zm-16.19,2a.28.28,0,0,0-.38.11,1.44,1.44,0,0,1-.28.25c.05.22.1.47.17.71a.35.35,0,0,0,.37.27A3.21,3.21,0,0,0,27.3,21.52Zm12,32.63a3.18,3.18,0,0,0-1.44.64,5.29,5.29,0,0,0,1.44,0ZM22.57,27.45l.68-.16c.16,0,.33-.06.49-.11a3.09,3.09,0,0,0,.37-.18.57.57,0,0,0-.45-.17c-.23,0-.45,0-.68,0s-.32,0-.38.33A2.66,2.66,0,0,0,22.57,27.45Zm4.56-1.17a1.87,1.87,0,0,0-1-.13v.65C26.66,26.91,27,26.75,27.13,26.28Zm6.06.49a.51.51,0,0,0-.06.15,1.37,1.37,0,0,1-.32.75c-.09.12-.19.24-.27.37a.76.76,0,0,0-.2.5c.13-.06.25-.07.32-.14A3,3,0,0,0,33,28l.37-.58a.25.25,0,0,1-.07-.28A.23.23,0,0,0,33.19,26.77Zm6.55,16.89a1,1,0,0,0,.41,1c.26.16.45.11.63-.17ZM28.82,26.57h-.75a.45.45,0,0,0,.05.55.73.73,0,0,0,.7.09ZM33.44,25a1.76,1.76,0,0,0-.63-1.54A1.65,1.65,0,0,0,33.44,25ZM26,24l.77.35a.36.36,0,0,0,0-.54c-.16-.17-.34-.31-.55-.5ZM53.38,41.7c-.09.22-.2.43-.29.65a1.18,1.18,0,0,0-.06.27c0,.1,0,.16.15.16h.39c0-.24.06-.45.07-.67a1.32,1.32,0,0,0,0-.28A.17.17,0,0,0,53.38,41.7ZM22.61,25h.78a.55.55,0,0,0-.6-.65.16.16,0,0,0-.12.09A.72.72,0,0,0,22.61,25ZM28,30.11c-.25-.1-.25-.1-.34-.3a.54.54,0,0,0-.07-.13c-.07-.06-.15-.06-.19,0a1.07,1.07,0,0,0,0,.86.23.23,0,0,0,.31.15.4.4,0,0,1,.24-.43S28,30.19,28,30.11Zm-.33-2.47c.09-.42-.15-.64-.66-.63a.73.73,0,0,0-.1.63ZM58,37.61a.36.36,0,0,1-.41.14.3.3,0,0,0-.21.09s0,.15,0,.18a1.78,1.78,0,0,0,.81.41C58.16,38.13,58.33,37.82,58,37.61ZM8,32c0,.16,0,.31,0,.46s0,.3,0,.45.09.18.22.18a.18.18,0,0,0,.19-.2c0-.3,0-.59,0-.89ZM48.16,15.19A1.73,1.73,0,0,0,47,14.13,2.11,2.11,0,0,0,48.16,15.19ZM37.88,4.57a1.43,1.43,0,0,0-.15-.33.2.2,0,0,0-.36.09,2.82,2.82,0,0,0,0,.58.25.25,0,0,0,.15.18A.26.26,0,0,0,37.7,5,2.31,2.31,0,0,0,37.88,4.57Zm4.93,17.34c0,.31,0,.56-.05.82,0,0,0,.1,0,.13s.09.15.16.17.16,0,.19-.12a.88.88,0,0,0-.09-.86C43,22,42.92,22,42.81,21.91Zm-20.5.91a.86.86,0,0,0,0,.72.27.27,0,0,0,.26.16C22.7,23.28,22.67,22.89,22.31,22.82Zm24.09-.41.26.28c.1.1.23.1.29,0s.2-.29.1-.48A.61.61,0,0,0,46.4,22.41Zm1.82,7.24a.24.24,0,0,0,0,.31c.14.13.31.09.48.06C48.74,29.68,48.64,29.61,48.22,29.65ZM31,23.44l.5-.24L31.08,23c-.16-.07-.29,0-.25.2A.92.92,0,0,0,31,23.44Zm2.63,2.47c-.17.45-.17.45-.13.62a.25.25,0,0,0,.31-.17A.38.38,0,0,0,33.62,25.91Z"/><path d="M27.44,13c-.1.29-.19.34-.42.2s-.3-.22-.45-.3-.36-.08-.47.24l.4.18a1.69,1.69,0,0,1,.63.37.52.52,0,0,1,.16.43,2.49,2.49,0,0,1-.85-.32l-.66-.45-1-.63H25c.47,0,.94,0,1.42-.06a1.66,1.66,0,0,1,.89.24Z"/><path d="M18,32a.86.86,0,0,1,.94.31l.1.1a.94.94,0,0,0,.87.44c-.18.3-.38.36-.64.2a.92.92,0,0,1-.48-.75,1,1,0,0,1-.82-.16,2.44,2.44,0,0,0-.56-.19c0-.31-.28-.47-.58-.59a2.71,2.71,0,0,1-.37-.21.53.53,0,0,1-.28-.4h.69c0,.36.25.51.53.63S18,31.62,18,32Z"/><path d="M51.65,28.79c0,.34,0,.34.31.44a.75.75,0,0,1,.25.13.19.19,0,0,1,0,.18.26.26,0,0,1-.15.09,1.71,1.71,0,0,1-.32,0c-.05,0-.12,0-.14-.07a2.73,2.73,0,0,0-1.19-.81,7.73,7.73,0,0,1-.75-.4,1.18,1.18,0,0,1-.51-.66.91.91,0,0,1,.54.16c.22.14.44.29.65.45A2.09,2.09,0,0,0,51.65,28.79Z"/><path d="M20.42,22.17h-.65a.38.38,0,0,1-.36-.17,4.4,4.4,0,0,0-1.28-1,4.22,4.22,0,0,1-1-.83l-.19-.27a2.16,2.16,0,0,1,.91.45c.29.23.55.47.83.71a2.88,2.88,0,0,0,1.64.76c0,.14,0,.29.1.38Z"/><path d="M19.08,31.3a.67.67,0,0,1-.79,0,7.52,7.52,0,0,1-.64-.47l-.56-.44a2.1,2.1,0,0,0-1-.45c0-.4-.37-.23-.56-.39a.48.48,0,0,1,.35-.06A3.29,3.29,0,0,1,17,30c.5.33,1,.68,1.48,1C18.68,31.09,18.86,31.18,19.08,31.3Z"/><path d="M20.21,36.11a3.47,3.47,0,0,1-1.27-.53c-.56-.36-1.11-.75-1.67-1.13a5,5,0,0,1-.46-.34.82.82,0,0,1,.49.07,6.59,6.59,0,0,1,.83.44C18.83,35.1,19.52,35.61,20.21,36.11Z"/><path d="M20.58,23.05a.62.62,0,0,1-.64.14,2.49,2.49,0,0,1-1.18-.86c-.13-.15-.22-.33-.36-.52A.87.87,0,0,1,19,22a4.94,4.94,0,0,1,.44.36A2,2,0,0,0,20.58,23.05Z"/><path d="M48.64,40.41c0-.2-.12-.26-.28-.3s-.26-.14-.14-.39a9.23,9.23,0,0,1,2.17,1.47.31.31,0,0,1-.32,0,4.61,4.61,0,0,1-.57-.36A1.69,1.69,0,0,0,48.64,40.41Z"/><path d="M50.85,28c.11-.31.24-.35.82-.28,0,.36.29.51.59.65a.82.82,0,0,1,.52.43.81.81,0,0,1-.63-.09,2.12,2.12,0,0,1-.38-.29A1.26,1.26,0,0,0,50.85,28Z"/><path d="M24.57,32.05a1.16,1.16,0,0,1,.86.22,3.27,3.27,0,0,0,1,.57.53.53,0,0,1-.58.15,2.79,2.79,0,0,1-1.08-.68Z"/><path d="M52,31.37l-.36.15c-.28-.15-.53-.29-.8-.42a.89.89,0,0,1-.64-.76,1,1,0,0,1-.75-.24c.58-.1.85.07,1,.65h.75c0,.36.07.39.4.48A3.72,3.72,0,0,1,52,31.37Z"/><path d="M21.68,30.2a.5.5,0,0,1,.55,0,4.41,4.41,0,0,1,.64.42c.31.22.6.45.9.68a.32.32,0,0,1-.47,0c-.25-.17-.49-.36-.72-.55A2.81,2.81,0,0,0,21.68,30.2Z"/><path d="M12.58,37.05c.7.07,1.16.59,1.76.81,0,.28-.12.33-.52.31,0-.33-.3-.44-.57-.54a3.52,3.52,0,0,1-.39-.16A.45.45,0,0,1,12.58,37.05Z"/><path d="M13,33.13c0,.3,0,.3.23.4s.27.07.22.27a.45.45,0,0,1-.42-.1,1,1,0,0,0-.84-.15.37.37,0,0,0-.27-.49c-.17-.08-.17-.14-.12-.35a.41.41,0,0,1,.38.16A.7.7,0,0,0,13,33.13Z"/><path d="M13.37,31.76a.43.43,0,0,1-.57.11,3.07,3.07,0,0,1-.59-.43,3.64,3.64,0,0,1-.55-.67,1.8,1.8,0,0,1,.22.06,4.79,4.79,0,0,1,.45.25Z"/><path d="M31.44,12.77A8.29,8.29,0,0,1,29.83,12a.38.38,0,0,1,.47-.15A1.87,1.87,0,0,1,31.44,12.77Z"/><path d="M19.56,37a.57.57,0,0,1,0-.13c0-.15-.07-.21-.19-.23l-.2,0c-.1,0-.22,0-.18-.19a.24.24,0,0,1,.29-.2,2.33,2.33,0,0,1,.34.2c.13.08.24.19.37.26a2,2,0,0,0,.35.1C20.24,37.06,20.08,37.11,19.56,37Z"/><path d="M34.29,12.29c-.21.37-.52.22-.81.27,0-.06,0-.09,0-.13,0-.24,0-.25-.24-.29h-.12c-.07,0-.19-.08-.2-.12a.48.48,0,0,1,.11-.24.16.16,0,0,1,.23,0l.29.23A1,1,0,0,0,34.29,12.29Z"/><path d="M28.86,12.53c0-.34,0-.34-.31-.44s-.26-.09-.26-.37a.43.43,0,0,1,.51.11,1.21,1.21,0,0,0,.74.44C29.41,12.55,29.31,12.59,28.86,12.53Z"/><path d="M50.43,24.47c.19-.35.34-.4.61-.23.11.07.2.15.3.22l.45.28c-.08.25-.13.28-.47.25-.06-.12-.08-.27-.16-.34a.89.89,0,0,0-.37-.11Z"/><path d="M50.29,36.77c-.15.29-.2.31-.54.26,0-.31,0-.34-.3-.4a1.83,1.83,0,0,1-.25-.06c-.19-.06-.22-.15-.14-.37a.64.64,0,0,1,.66.22A.92.92,0,0,0,50.29,36.77Z"/><path d="M20,28.81c.33,0,.33,0,.4.42a1.11,1.11,0,0,1,.92.4.33.33,0,0,1,0,.35l-.15-.1-.79-.47A.82.82,0,0,1,20,28.81Z"/><path d="M50.37,32.79a.77.77,0,0,1,.91.16,3.11,3.11,0,0,1,.41.46c-.07.11-.18.13-.31,0s-.53-.36-.8-.54a1.43,1.43,0,0,0-.21-.12Z"/><path d="M51.29,27.24c0-.37,0-.37-.39-.42a3.09,3.09,0,0,1-.34-.1,1,1,0,0,1,1.36.51h-.63Z"/><path d="M51.29,26.12c0-.38-.08-.41-.45-.48l-.19-.05s0,0,0,0c.1-.22.23-.29.42-.22a1.56,1.56,0,0,1,.8.78Z"/><path d="M20.09,31.32a.61.61,0,0,1,.6.08c.16.11.31.24.47.36l.58.47C21,32.15,20.63,31.6,20.09,31.32Z"/><path d="M14.78,34.66a1.33,1.33,0,0,1-1.23-.82A1.68,1.68,0,0,1,14.78,34.66Z"/><path d="M50,21.65c-.18.16-.18.16-.68.12a.93.93,0,0,0-.14-.22,1,1,0,0,0-.24-.09c-.25-.07-.29-.14-.21-.39a.65.65,0,0,1,.6.23A.9.9,0,0,0,50,21.65Z"/><path d="M24.3,14a1,1,0,0,1-1.07-.32c-.14-.13-.14-.23-.06-.42a1.24,1.24,0,0,1,.25.18.66.66,0,0,0,.65.25h.1l.13.31Z"/><path d="M17.42,33.54a.69.69,0,0,1-.63-.29A.71.71,0,0,0,16.2,33a.6.6,0,0,1,.52-.28c0,.25.21.34.41.42S17.43,33.27,17.42,33.54Z"/><path d="M15.11,33.84a1.67,1.67,0,0,1,1.19.8C15.85,34.71,15.45,34.44,15.11,33.84Z"/><path d="M13.85,35.35c.15-.3.25-.33.51-.13l.21.16a.64.64,0,0,0,.61.13c-.09.25-.15.3-.35.28a1.76,1.76,0,0,1-.3-.1c-.12-.06-.22-.14-.34-.2Z"/><path d="M49.32,35.77c0-.22-.12-.27-.3-.29a.87.87,0,0,1-.26-.08c.13-.31.15-.32.52-.28a.59.59,0,0,1,0,.13c0,.16.08.22.22.24s.22,0,.33.07.1.09.15.14-.12.09-.18.1Z"/><path d="M19.14,16.76c.51,0,.77.41,1.16.55-.11.21-.17.24-.35.18A1.37,1.37,0,0,1,19.14,16.76Z"/><path d="M14.53,22.61c.06-.25-.06-.35-.27-.42s-.22-.1-.16-.39a.46.46,0,0,1,.41.19.81.81,0,0,0,.54.34C15,22.61,14.92,22.64,14.53,22.61Z"/><path d="M14.9,36.59a1.11,1.11,0,0,1-1.05-.79c.26.11.51.21.75.33A.46.46,0,0,1,14.9,36.59Z"/><path d="M49.76,40.13c0-.31,0-.31-.26-.42s-.25-.14-.19-.38a1.35,1.35,0,0,1,1,.78A1.72,1.72,0,0,1,49.76,40.13Z"/><path d="M15.56,35.25c.28-.19.27-.19.51,0s.46.33.7.5A1.18,1.18,0,0,1,15.56,35.25Z"/><path d="M22.26,31.55a2.41,2.41,0,0,1-1.06-.78A.91.91,0,0,1,22.26,31.55Z"/><path d="M19.91,20.82c-.16.22-.26.27-.42.2a1.19,1.19,0,0,1-.65-.72C19.29,20.32,19.53,20.69,19.91,20.82Z"/><path d="M18.7,18.22a1.2,1.2,0,0,1-1.19-.46c.26-.21.26-.21.51,0Z"/><path d="M49.26,41.65a1.46,1.46,0,0,1-.91-.76A.76.76,0,0,1,49.26,41.65Z"/><path d="M18.27,29.77a.71.71,0,0,1-.69.27c.11-.37-.25-.43-.43-.63l.14-.2s.07,0,.09,0a1.12,1.12,0,0,1,.24.19A.73.73,0,0,0,18.27,29.77Z"/><path d="M52.39,30.72c-.51.06-.79-.12-1.1-.67C51.71,30.22,52.19,30.19,52.39,30.72Z"/><path d="M12.24,26.16a1.73,1.73,0,0,1,1.09.62,1.87,1.87,0,0,1-.94-.22A.31.31,0,0,1,12.24,26.16Z"/><path d="M18,32.45c-.16.29-.27.32-.53.13l-.62-.48a.22.22,0,0,1,.3-.07l.35.17Z"/><path d="M50.22,27.06c-.27.21-.3.21-.53,0s-.41-.31-.64-.49A1.31,1.31,0,0,1,50.22,27.06Z"/><path d="M37.24,12.49l-1-.56a.27.27,0,0,1,.27-.19.9.9,0,0,1,.74.66S37.24,12.46,37.24,12.49Z"/><path d="M51.65,37h-.38c0-.24,0-.36-.27-.43s-.22-.13-.16-.37C51.35,36.36,51.64,36.64,51.65,37Z"/><path d="M49.86,37.51c-.15.25-.26.29-.54.21.1-.45-.32-.37-.53-.5.1-.17.17-.21.33-.16a1.49,1.49,0,0,1,.24.14Z"/><path d="M18.78,20c-.12.25-.27.31-.5.15a5.37,5.37,0,0,1-.58-.49s0,0,0-.05A2.31,2.31,0,0,1,18.78,20Z"/><path d="M20.91,32.72h-.52c0-.33,0-.33-.29-.43s-.16-.06-.14-.26C20.49,32.09,20.8,32.3,20.91,32.72Z"/><path d="M50.5,37.11c.24.07.48.13.71.21s.26.14.32.38C51.17,37.86,50.7,37.55,50.5,37.11Z"/><path d="M18.26,21.49c0,.26,0,.29-.17.3s-.32,0-.51,0c0-.22-.14-.25-.29-.31v-.42c.12.08.22.12.27.2C17.74,21.5,17.94,21.64,18.26,21.49Z"/><path d="M49.53,41.73c.46-.09.73.12.84.67A1.06,1.06,0,0,1,49.53,41.73Z"/><path d="M20.55,24.19a.94.94,0,0,1,.91.77C21.13,25,20.82,24.7,20.55,24.19Z"/><path d="M50.16,37.72l.27.21a1.84,1.84,0,0,0,.23.25,1.4,1.4,0,0,0,.3.15c-.09.25-.15.28-.53.25a.36.36,0,0,0-.18-.44C50.09,38.06,50.09,37.92,50.16,37.72Z"/><path d="M49.14,39.17c-.16.17-.31.09-.45,0l-.61-.36c.1-.24.2-.29.48-.24.06.14.08.31.18.4S49,39.1,49.14,39.17Z"/><path d="M50.38,26.5c-.29-.29-.73-.36-.92-.76A.76.76,0,0,1,50.38,26.5Z"/><path d="M18.13,34.12a.55.55,0,0,1,.55-.28c0,.31.51.37.43.81C18.8,34.43,18.58,34.1,18.13,34.12Z"/><path d="M14.49,32.72a.49.49,0,0,1-.45-.23.59.59,0,0,0-.5-.35C14.06,31.94,14.54,32.27,14.49,32.72Z"/><path d="M12.59,29.21c.37.19.75.32.8.8C12.88,29.86,12.61,29.6,12.59,29.21Z"/><path d="M19.47,33.81c-.37-.16-.75-.24-.91-.65C18.93,33.06,19.19,33.25,19.47,33.81Z"/><path d="M33.35,11.08a.75.75,0,0,1,.89.59.43.43,0,0,1-.49-.17Z"/><path d="M51.25,40.81c-.61-.1-.78-.25-.82-.66C50.88,40.14,51,40.49,51.25,40.81Z"/><path d="M20.53,30.22c-.54.1-1-.19-1-.57.11-.09.22,0,.31,0a.81.81,0,0,1,.18.19A.7.7,0,0,0,20.53,30.22Z"/><path d="M19.87,16.33c-.07,0-.17,0-.21-.09a.61.61,0,0,0-.54-.21v-.41C19.56,15.66,19.72,16,19.87,16.33Z"/><path d="M50.51,39.07c.31.12.74.08.75.61C50.81,39.7,50.68,39.35,50.51,39.07Z"/><path d="M13.73,30.13a.19.19,0,0,1,.28,0l.25.19.36.22-.28.23Z"/><path d="M12.31,35.12l.47,0c.12,0,.18,0,.19.15a.19.19,0,0,1-.16.23A.45.45,0,0,1,12.31,35.12Z"/><path d="M49.05,22.25l.58-.05c.09.12.13.25,0,.33a.34.34,0,0,1-.28,0A.36.36,0,0,1,49.05,22.25Z"/><path d="M17.12,19.09c-.13,0-.26,0-.39,0s-.27,0-.24-.32C16.9,18.7,17.05,18.77,17.12,19.09Z"/><path d="M13.43,26.86c.37-.05.49,0,.49.33C13.53,27.32,13.36,27.21,13.43,26.86Z"/><path d="M13,27.92c.11-.19.18-.24.36-.2s.24.12.26.34A.73.73,0,0,1,13,27.92Z"/><path d="M19.69,33.85a.77.77,0,0,1,.64.13c-.11.2-.16.23-.35.2S19.74,34.09,19.69,33.85Z"/><path d="M15.86,33.51c-.45.06-.54,0-.48-.33C15.74,33.18,15.82,33.24,15.86,33.51Z"/><path d="M26.64,11.74a.34.34,0,0,1,.34,0l.3.14a.24.24,0,0,1-.3.17A.35.35,0,0,1,26.64,11.74Z"/><path d="M16.08,32v-.39l.49.15C16.45,32,16.43,32,16.08,32Z"/><path d="M16,31.32c-.1.26-.22.27-.6.07C15.55,31.14,15.73,31.12,16,31.32Z"/><path d="M50.32,27.5c.08-.24.25-.26.46-.23v.35C50.6,27.69,50.48,27.57,50.32,27.5Z"/><path d="M47.29,38.23a.35.35,0,0,1,.34-.06c.1,0,.16.12.14.22a.19.19,0,0,1-.1.14c-.11,0-.17,0-.23-.11a1.39,1.39,0,0,0-.15-.19Z"/><path d="M18.88,16.26c.24.18.25.21.05.44a.48.48,0,0,1,0-.45Z"/><path d="M33.39,19.53A3.18,3.18,0,0,1,31,18.62a3.6,3.6,0,0,1-.71-1.13c-.14-.38-.27-.75-.42-1.15a.88.88,0,0,0-.37.8,2.37,2.37,0,0,0,.19.74c.12.3.29.58.43.87a.93.93,0,0,1,.14.72c-.13,0-.17,0-.2-.13a.37.37,0,0,0-.46-.26c-.07-.39-.15-.77-.19-1.16s-.08-1.06-.07-1.59a4.83,4.83,0,0,1,.18-.92.34.34,0,0,1,.27-.26,1.81,1.81,0,0,1,1.65.29c.29.21.57.43.87.64a4.87,4.87,0,0,0,.45.27,5.37,5.37,0,0,0,.43,1.85,7.19,7.19,0,0,1,.24.94A2.52,2.52,0,0,1,33.39,19.53Zm-2.46-2.25a.84.84,0,0,0,.18.86,3.23,3.23,0,0,0,.56.48,4.36,4.36,0,0,0,1,.5c.22-.31.13-.65.14-1A3.49,3.49,0,0,1,30.93,17.28Z"/><path d="M34.06,15.84a2.56,2.56,0,0,1,.58.65,15,15,0,0,1,1.13,2.09c.17.34.34.68.52,1.06-.16,0-.3,0-.44,0a1.94,1.94,0,0,1-.43-.12c-.08,0-.12-.14-.19-.23s-.27.23-.29.42a.67.67,0,0,0,.42.77c-.17.26-.41.18-.63.18a2.82,2.82,0,0,1-.23-.94c-.06-.63-.09-1.25-.13-1.88a5.63,5.63,0,0,0-.32-1.91S34.05,15.87,34.06,15.84Z"/><path d="M36.42,35.42A3,3,0,0,1,36,34.35a5.67,5.67,0,0,1,.19-2.62,15.92,15.92,0,0,1,1.24-2.91c.21-.4.41-.8.64-1.19a2.94,2.94,0,0,1-.12.84,12.56,12.56,0,0,1-.81,2.14,10.73,10.73,0,0,0-.76,2.12,6.53,6.53,0,0,0,0,2.53A1.47,1.47,0,0,0,36.42,35.42Z"/><path d="M32.81,29.84a4.64,4.64,0,0,0,2.28-3.79,1.26,1.26,0,0,1,.2.65,2.48,2.48,0,0,1-.23,1.17,3.62,3.62,0,0,1-1.88,1.93,1.69,1.69,0,0,1-.34.09Z"/><path d="M41.61,15.76a.83.83,0,0,1-.5.34c-.27.09-.55.15-.82.24a.91.91,0,0,0-.68.55,1.67,1.67,0,0,0-.08.3.44.44,0,0,1-.21-.57,1.06,1.06,0,0,1,.42-.56,1.93,1.93,0,0,1,1.6-.4A1.81,1.81,0,0,1,41.61,15.76Z"/><path d="M22.94,21.09a.38.38,0,0,1,.07-.38.23.23,0,0,1,.27-.1.25.25,0,0,1,.12.13.26.26,0,0,1-.15.28A1.29,1.29,0,0,1,22.94,21.09Z"/><path d="M29.21,50.16a.76.76,0,0,1,.06.16.85.85,0,0,0,.52.64c.31.14.63.26.94.39a3.4,3.4,0,0,1,.54.27.38.38,0,0,1,.18.45l-.26-.2a.74.74,0,0,0-.63-.17.22.22,0,0,1-.25-.08,2.66,2.66,0,0,0-1-.8l-1-.49a2.3,2.3,0,0,1-.33-.21.32.32,0,0,1-.1-.22s.12-.08.18-.09a1.76,1.76,0,0,1,.33,0l0,.4.61,0c.05,0,.11-.05.16-.08Z"/><path d="M29.39,52.57c-.47.08-.58,0-.59-.39h-.45c-.28,0-.42.1-.35.39-.39.07-.52,0-.55-.4h.27l.27,0v-.32l-.29-.08c-.29,0-.31-.06-.25-.37a.39.39,0,0,1,.41.06.69.69,0,0,1,.13.11.74.74,0,0,0,.8.21s0,0,0,.06c0,.28,0,.28.31.38S29.42,52.3,29.39,52.57Z"/><path d="M37.39,52a.28.28,0,0,1-.33.14c-.19-.06-.08-.25-.16-.39h-.6c-.11-.48-.51-.57-.86-.69A1.73,1.73,0,0,0,35,51c0-.28-.13-.39-.38-.45s-.21-.07-.19-.31A15.2,15.2,0,0,1,37.39,52Z"/><path d="M38.43,51.08l-.68-.39c-.2-.12-.38-.26-.58-.37s-.41-.17-.65-.27c0-.11,0-.23-.18-.26s-.16-.12-.12-.24.05,0,.06,0l1.26.58a1.88,1.88,0,0,1,.83.75.3.3,0,0,1,0,.08S38.42,51,38.43,51.08Z"/><path d="M28.18,48.25h.67c.06.39.36.53.68.64a2.32,2.32,0,0,1,.39.18.51.51,0,0,1,.3.41h-.67a1,1,0,0,0-.64-.61,3.86,3.86,0,0,1-.41-.2A.61.61,0,0,1,28.18,48.25Z"/><path d="M37.05,51h-.54a1.08,1.08,0,0,0-.69-.66c-.19-.08-.37-.19-.55-.28.1-.31.15-.33.54-.3a.85.85,0,0,0,.53.55,3.84,3.84,0,0,1,.4.21A.58.58,0,0,1,37.05,51Z"/><path d="M25.79,49.55a2.86,2.86,0,0,1,1.77,1.05,2.64,2.64,0,0,1-.63,0c-.06-.31-.3-.43-.57-.51A1.75,1.75,0,0,1,26,50,.41.41,0,0,1,25.79,49.55Z"/><path d="M32.91,50.48c.13-.28.16-.29.53-.25.07.31.32.43.6.53a2.44,2.44,0,0,1,.34.14.47.47,0,0,1,.3.38A3.53,3.53,0,0,1,32.91,50.48Z"/><path d="M33.73,50.22c0-.32-.25-.43-.5-.52a2.66,2.66,0,0,1-.39-.16c-.2-.1-.22-.17-.09-.43a2.62,2.62,0,0,0,.34.24l1,.47c.11.06.28.08.24.27s-.2.14-.33.14Z"/><path d="M27.84,50.73l1.67.76a.31.31,0,0,1-.32.17A2,2,0,0,1,27.84,50.73Z"/><path d="M33.84,52.59H33c.06-.25-.08-.38-.27-.5s-.17-.13,0-.33a.6.6,0,0,0,.49.33,2.14,2.14,0,0,1,.42.16A.28.28,0,0,1,33.84,52.59Z"/><path d="M25.63,49.24c-.11.28-.34.35-.65.24,0-.31,0-.31-.35-.43s-.25-.09-.22-.37a.4.4,0,0,1,.37.06.65.65,0,0,1,.16.13A.86.86,0,0,0,25.63,49.24Z"/><path d="M41.64,49.78c0,.44.07.46.53.57,0,.25-.14.32-.48.27a.36.36,0,0,1,0-.11c0-.17-.07-.25-.22-.3a1.26,1.26,0,0,1-.29-.12.31.31,0,0,1-.08-.22s.11-.07.18-.08A2.35,2.35,0,0,1,41.64,49.78Z"/><path d="M32.35,50.24a.59.59,0,0,1,0-.18c0-.16-.09-.24-.23-.28l-.32-.1a.25.25,0,0,1,.38-.14,6,6,0,0,1,.69.39c.11.07.06.25-.09.28A2.58,2.58,0,0,1,32.35,50.24Z"/><path d="M31.48,49.55c-.16-.15-.27-.24-.37-.35a.77.77,0,0,0-.69-.25.39.39,0,0,1,.39-.29A.86.86,0,0,1,31.48,49.55Z"/><path d="M34.31,51.76c.4.18.81.3.93.81A.9.9,0,0,1,34.31,51.76Z"/><path d="M24.07,49.47a.63.63,0,0,0-.54.14.5.5,0,0,1-.48.14.13.13,0,0,1,.06-.2l.08,0c.29-.1.29-.1.3-.38C23.88,49.05,24.07,49.15,24.07,49.47Z"/><path d="M33.28,48.64a.93.93,0,0,1-.93-.81A1.62,1.62,0,0,1,33.28,48.64Z"/><path d="M22.32,49l-.64,0c-.1,0-.18,0-.18-.14s0-.18.09-.22A.5.5,0,0,1,22.32,49Z"/><path d="M29.71,48.3l.45,0c.09,0,.18,0,.2.11a.22.22,0,0,1-.11.27.4.4,0,0,1-.37,0A.25.25,0,0,1,29.71,48.3Z"/><path d="M34.05,49.13c.44-.07.6,0,.59.32C34.27,49.57,34,49.46,34.05,49.13Z"/><path d="M27.15,49.31a.47.47,0,0,1-.51.18.22.22,0,0,1-.17-.28c0-.11.14-.15.28-.1Z"/><path d="M32,50.59a.43.43,0,0,1-.37,0,.22.22,0,0,1-.15-.27c0-.11.12-.11.23-.1S32,50.31,32,50.59Z"/><path d="M32.42,51.72c-.46.05-.52,0-.47-.34C32.33,51.32,32.42,51.38,32.42,51.72Z"/><path d="M34,51.48c-.15.25-.17.26-.5.24v-.36C33.68,51.29,33.8,51.43,34,51.48Z"/><path d="M25.37,50.59a1.11,1.11,0,0,1,0,.26.32.32,0,0,1-.09.16A.24.24,0,0,1,25,51c-.07-.1,0-.23.12-.3a2.45,2.45,0,0,1,.29-.08Z"/><path d="M40.48,49.53l.29,0v.06l-.3,0Z"/><path d="M21.47,43.22a1.28,1.28,0,0,0-.95.46c-.15.15-.31.3-.48.44a1,1,0,0,1-.5.21,2.63,2.63,0,0,1,.51-.65l1.49-1.37A5.74,5.74,0,0,0,22.61,41a.44.44,0,0,1,.32-.25A1.93,1.93,0,0,0,24,40.09c.23-.25.48-.49.73-.72,0,0,0,0,.09,0a1.25,1.25,0,0,1-.41.81c-.33.32-.69.62-1,.94a5.29,5.29,0,0,0-.58.58c-.19.25-.33.53-.52.84l-.36,0c-.34.07-.42.17-.43.52Z"/><path d="M26.3,44.61a.39.39,0,0,1-.25-.38c0-.11,0-.19.13-.22a.72.72,0,0,0,.49-.52c.08-.22.15-.45.22-.68.2,0,.43,0,.56-.23a.73.73,0,0,1-.14.66,4,4,0,0,1-.3.42Z"/><path d="M6.41,25a1,1,0,0,0,.33.79A.76.76,0,0,1,7,26.6l-1.27.48a1.47,1.47,0,0,1-.75.13.56.56,0,0,1,0-.13.67.67,0,0,0-.36-.66.66.66,0,0,1-.37-.52l0,0a2.32,2.32,0,0,0,1-.51,1.43,1.43,0,0,1,1-.35Z"/><path d="M57.67,27.06a1,1,0,0,1,.3-.93c.26-.26.54-.51.83-.77a1.37,1.37,0,0,0,.87.35,3.75,3.75,0,0,1,.55.15.55.55,0,0,1,.12,1l-.21.15a.72.72,0,0,0-.38.66,1.66,1.66,0,0,1-1.14-.12Z"/><path d="M5.59,40.55c-.33,0-.47.17-.57.45-.17.45-.27.47-.72.22-.06,0-.11-.1-.18-.14l-.72-.45c0-.1.08-.21.16-.31l.21-.24a1,1,0,0,0,.28-.76.56.56,0,0,1,.62,0,1.56,1.56,0,0,1,.2.16.62.62,0,0,0,.68.22A1.7,1.7,0,0,1,5.59,40.55Z"/><path d="M38.14,44.21a2.9,2.9,0,0,1-.33-1.28A6.08,6.08,0,0,1,38.07,41c.18-.65.38-1.3.55-1.95.11-.43.2-.86.3-1.31a1,1,0,0,1,.64,0c.14.05.17.16.08.26a3.68,3.68,0,0,0-.71,1.46,14.36,14.36,0,0,0-.46,2.35c-.1.73-.19,1.46-.28,2.18C38.19,44.11,38.17,44.13,38.14,44.21Z"/><path d="M39.5,47.86c-.08-.07-.17-.11-.2-.17a.34.34,0,0,0-.37-.2.83.83,0,0,0-.32-.81c-.16-.17-.15-.25,0-.47a9,9,0,0,1,.87,1A.62.62,0,0,1,39.5,47.86Z"/><path d="M38.42,46c-.26,0-.26-.22-.26-.35s.05-.53.07-.82a.23.23,0,0,1,.19.25C38.43,45.36,38.42,45.66,38.42,46Z"/><path d="M33.52,31.67a1.66,1.66,0,0,1-.19,1.08,5.15,5.15,0,0,1-2.54,2.56,3.14,3.14,0,0,1-2.19.25l-.07,0c.26,0,.5-.05.73-.09a4.19,4.19,0,0,0,1.62-.67c.22-.16.44-.32.67-.47l1-.64c.1-.06.2-.11.2-.27a1.81,1.81,0,0,1,.33-1.05C33.21,32.11,33.37,31.89,33.52,31.67Z"/><path d="M30.51,32.27c.14-.24.4-.39.26-.7h.41C31.3,32,31.1,32.2,30.51,32.27Z"/></svg>